<?xml version="1.0" encoding="utf-8"?>
<!-- Generator: Adobe Illustrator 21.0.0, SVG Export Plug-In . SVG Version: 6.00 Build 0)  -->
<svg version="1.1" id="Layer_1" xmlns="http://www.w3.org/2000/svg" xmlns:xlink="http://www.w3.org/1999/xlink" x="0px" y="0px"
	 width="1720px" height="1400px" viewBox="0 0 1720 1400" enable-background="new 0 0 1720 1400" xml:space="preserve">
<g id="landmark-3d-basic">
	<g id="base_1_">
		<g>
			<path fill="#2F1558" d="M163.43,517.36c-13.51,8.25-13.03,22.81-2.41,31.55c12.68,10.44,958.69,568.59,958.69,568.59
				s24.48,15.53,48.85,2.18c21.76-11.92,408.13-242.44,408.13-242.44s22.07-13.47,11.22-36.04c-2.61-5.42-6.39-8.86-17.97-15.89
				c-11.58-7.04-939.03-551.61-939.03-551.61s-32.8-19.41-55.96-9.71C568.64,266.65,418.52,361.55,163.43,517.36z"/>
			<path fill="#170B3A" d="M1145.23,1125.51v55.33c0,0,14.83-0.73,28.58-8.01c13.75-7.28,405.41-243.16,405.41-243.16
				s12.15-6.06,12.63-20.63c0.48-14.56-0.44-51.93-0.44-51.93s-3.84,11.65-10.59,16.99s-417.16,247.53-417.16,247.53
				S1155.36,1125.99,1145.23,1125.51z"/>
			<path fill="#0E0828" d="M1145.23,1125.51v55.33c0,0-13.93-0.73-27.67-8.01c-13.75-7.28-952.02-563.5-952.02-563.5
				s-11.92-6.07-12.41-20.63s0.55-51.93,0.55-51.93s3.89,8.74,10.65,14.08c6.75,5.34,963.34,570.78,963.34,570.78
				S1136.55,1125.99,1145.23,1125.51z"/>
		</g>
	</g>
	<g id="bg_2_">
		<path fill="#2F1558" stroke="#EB30FF" stroke-miterlimit="10" d="M1130.2,1027.95c0,0,18.09,12.38,41.97,0.73
			c23.88-11.65,268.47-156.53,268.47-156.53s20.26-10.19,1.45-26.94L610.64,358.16c0,0-23.88-12.38-41.97-0.73
			C550.57,369.08,300.2,515.42,300.2,515.42s-14.47,15.29-2.89,24.02C308.88,548.18,1130.2,1027.95,1130.2,1027.95z"/>
	</g>
</g>
<g id="landmark-vip">
	<path fill="#964CFF" d="M352.3,520.22L574.85,390.6c0,0,7.89-5.67,16.04-1.44c9.45,4.9,201.62,120.43,201.62,120.43L571.13,637.48
		c0,0-8.59,4.9-18.9,0.29C541.92,633.16,352.3,520.22,352.3,520.22z"/>
	<g>
		<g>
			<path fill="#7B38C3" d="M352.13,520.22v7.2l198.57,116.4c0,0,9.29,5.47,17.88,1.73c8.59-3.74,223.51-128.47,223.51-128.47v-7.49
				c0,0-197.27,116.08-221.04,128.18c-4.47,2.28-10.49,4.62-20.24-0.29C539.37,631.72,352.13,520.22,352.13,520.22z"/>
			<path fill="#7B38C3" d="M353.58,519.99V347.47c0,0-2.11-6.4,11.88-15.99c13.99-9.6,208.95-121.55,208.95-121.55
				s7.82-5.12,9.73,5.12c1.91,10.24,0.62,172.23,0.62,172.23L353.58,519.99z"/>
			<path fill="#632EB7" d="M353.58,519.53v-172c0,0-0.72-7.85,11.84-15.95c14.22-9.16,208.33-121.19,208.33-121.19
				s2.15-1.36,4.4-1.27c0.02-0.21,0.09-0.43,0-0.46c-6.25-1.94-10.08,0.97-10.08,0.97S375.58,320.52,362.7,328.67
				c-12.99,8.23-12.02,16.94-12.02,16.94l1.45,181.95l1.95-8.11L353.58,519.53z"/>
		</g>
	</g>
	
		<text transform="matrix(0.8922 0.536 -0.7609 0.6489 569.8212 483.3008)" fill="#FFFFFF" font-family="'ProximaNova-Regular'" font-size="22.3437px">VIP</text>
	
		<text transform="matrix(0.8922 0.536 -0.7609 0.6489 516.4803 480.9064)" fill="#FFFFFF" font-family="'ProximaNova-Regular'" font-size="22.3437px">Auditorium</text>
	
		<text transform="matrix(0.8922 0.536 -0.7609 0.6489 509.5231 506.3824)" fill="#FFFFFF" font-family="'ProximaNova-Regular'" font-size="22.3437px">Enclose</text>
</g>
<g id="landmark-3d-a">
	<g id="bs05-2">
		<g>
			<polygon fill="#2FA9D3" points="837.89,660.13 921.65,611.88 1003.49,658.2 921.01,707.09 			"/>
		</g>
		
			<text transform="matrix(0.8039 0.4889 -0.8111 0.585 896.7869 652.7444)" fill="#FFFFFF" font-family="'ProximaNova-Regular'" font-size="23.9227px">S05</text>
	</g>
	<g id="bs04_1_">
		<g>
			<polygon fill="#10757A" points="754.47,716.36 754.47,708.18 837.61,755.14 838.88,763.31 			"/>
			<polygon fill="#1F9FC1" points="753.95,708.18 837.71,659.93 919.55,706.25 837.07,755.14 			"/>
		</g>
		
			<text transform="matrix(0.8039 0.4889 -0.8111 0.585 814.7612 699.9841)" fill="#FFFFFF" font-family="'ProximaNova-Regular'" font-size="23.9227px">S04</text>
	</g>
	<g id="bs05">
		<polygon fill="#1F9FC1" points="755.4,613.53 839.16,565.29 921,611.6 838.52,660.49 		"/>
		
			<text transform="matrix(0.8039 0.4889 -0.8111 0.585 814.7747 606.1503)" fill="#FFFFFF" font-family="'ProximaNova-Regular'" font-size="23.9227px">S05</text>
	</g>
	<g id="bs04">
		<g>
			<polygon fill="#0F6D6D" points="671.98,669.76 671.98,661.58 755.11,708.54 756.38,716.72 			"/>
			<polygon fill="#1B95B2" points="671.46,661.58 755.21,613.34 837.06,659.65 754.57,708.54 			"/>
		</g>
		
			<text transform="matrix(0.8039 0.4889 -0.8111 0.585 732.7471 653.3881)" fill="#FFFFFF" font-family="'ProximaNova-Regular'" font-size="23.9227px">S04</text>
	</g>
	<g id="bs06">
		<g>
			<polygon fill="#41B3E5" points="920.39,706.72 1004.14,658.48 1085.98,704.79 1003.5,753.68 			"/>
		</g>
		
			<text transform="matrix(0.8039 0.4889 -0.8111 0.585 980.2196 701.9699)" fill="#FFFFFF" font-family="'ProximaNova-Regular'" font-size="23.9227px">S06</text>
	</g>
	<g id="bs03">
		<g>
			<polygon fill="#138591" points="836.97,762.95 836.97,754.77 920.1,801.73 921.37,809.91 			"/>
			<polygon fill="#2FA9D3" points="836.44,754.77 920.2,706.53 1002.04,752.84 919.56,801.73 			"/>
		</g>
		
			<text transform="matrix(0.8039 0.4889 -0.8111 0.585 898.2139 749.2206)" fill="#FFFFFF" font-family="'ProximaNova-Regular'" font-size="23.9227px">S03</text>
	</g>
	<g id="bs07">
		<g>
			<polygon fill="#55BAF2" points="1002.88,753.32 1086.64,705.07 1168.48,751.39 1086,800.27 			"/>
		</g>
		
			<text transform="matrix(0.8039 0.4889 -0.8111 0.585 1067.2675 750.69)" fill="#FFFFFF" font-family="'ProximaNova-Regular'" font-size="23.9227px">S07</text>
	</g>
	<g id="bs02">
		<g>
			<polygon fill="#1691A5" points="919.46,809.54 919.46,801.37 1002.59,848.32 1003.87,856.5 			"/>
			<polygon fill="#41B3E5" points="918.94,801.37 1002.7,753.12 1084.54,799.44 1002.06,848.32 			"/>
		</g>
		
			<text transform="matrix(0.8039 0.4889 -0.8111 0.585 987.5865 798.2795)" fill="#FFFFFF" font-family="'ProximaNova-Regular'" font-size="23.9227px">S02</text>
	</g>
	<g id="bs08">
		<g>
			<polygon fill="#29B7E2" points="1250.97,797.98 1252.25,806.8 1169.77,855.04 1168.49,846.87 			"/>
			<polygon fill="#7ECBFF" points="1085.37,799.91 1169.13,751.66 1250.97,797.98 1168.49,846.87 			"/>
		</g>
		
			<text transform="matrix(0.8039 0.4889 -0.8111 0.585 1149.1123 797.6066)" fill="#FFFFFF" font-family="'ProximaNova-Regular'" font-size="23.9227px">S08</text>
	</g>
	<g id="bs01">
		<g>
			<polygon fill="#1899B7" points="1001.95,856.14 1001.95,847.96 1085.09,894.92 1086.36,903.09 			"/>
			<polygon fill="#1DA2CC" points="1168.31,846.92 1169.52,855.41 1085.83,903.09 1084.55,894.92 			"/>
			<polygon fill="#55BAF2" points="1001.43,847.96 1085.19,799.71 1168.55,847.16 1084.55,894.92 			"/>
		</g>
		
			<text transform="matrix(0.8039 0.4889 -0.8111 0.585 1068.1509 847.9964)" fill="#FFFFFF" font-family="'ProximaNova-Regular'" font-size="23.9227px">S01</text>
	</g>
</g>
<g id="gate_2_">
	<g>
		<path fill="#964CFF" d="M1367.62,906.35l-155.73,90.02c-4.27,2.47-1.97,3.52-1.66,3.96l9.16,5.27c4.16,1.97,7.59-0.58,7.59-0.58
			s11.3-6.45,27.76-15.84l128.21-73.87c2.5-1.47,1.42-3.29-0.01-5.09l-6.72-4.39C1370.99,904.01,1370.27,905.46,1367.62,906.35z"/>
		<polygon fill="#964CFF" points="1379.78,825.65 1381.06,780.59 1217.53,875.43 1216.25,921.13 		"/>
		<polygon fill="#964CFF" points="1381.14,780.59 1379.77,908.64 1375.35,911.1 1376.63,783.21 		"/>
		<polygon fill="#964CFF" points="1221.94,872.32 1220.57,998.92 1216.15,1001.38 1217.43,874.94 		"/>
		
			<text transform="matrix(1.0632 -0.6095 1.990000e-03 1 1233.6356 896.5469)" fill="#FFFFFF" font-family="'ProximaNova-Regular'" font-size="24.3755px">ENTRANCE</text>
	</g>
</g>
</svg>
