<?xml version="1.0" encoding="utf-8"?>
<!-- Generator: Adobe Illustrator 21.0.0, SVG Export Plug-In . SVG Version: 6.00 Build 0)  -->
<svg version="1.1" id="Layer_1" xmlns="http://www.w3.org/2000/svg" xmlns:xlink="http://www.w3.org/1999/xlink" x="0px" y="0px"
	 width="1720px" height="1400px" viewBox="0 0 1720 1400" enable-background="new 0 0 1720 1400" xml:space="preserve">
<g id="landmark-floor">
	<path fill="#2F1558" d="M1601.92,1124H118.08c-17.72,0-32.08-14.36-32.08-32.08V423.52c0-17.72,14.36-32.08,32.08-32.08h1483.83
		c17.72,0,32.08,14.36,32.08,32.08v668.39C1634,1109.64,1619.64,1124,1601.92,1124z"/>
	<rect x="259.11" y="565.89" fill="#2F1558" stroke="#EC8FFF" stroke-miterlimit="10" width="1189.74" height="372.96"/>
	<path fill="none" stroke="#FFFFFF" stroke-miterlimit="10" d="M1523.71,1012.38H200.3c-8.86,0-16.04-7.18-16.04-16.04V512.42
		c0-8.86,7.18-16.04,16.04-16.04h1323.42c8.86,0,16.04,7.18,16.04,16.04v483.92C1539.76,1005.2,1532.57,1012.38,1523.71,1012.38z"/>
</g>
<g id="landmark-zone-a">
	
		<text transform="matrix(0.9565 0 0 1 437.1978 724.3174)" fill="#FFFFFF" font-family="'ProximaNova-Regular'" font-size="21.8261px">VIP</text>
	
		<text transform="matrix(0.9565 0 0 1 402.7007 750.5098)" fill="#FFFFFF" font-family="'ProximaNova-Regular'" font-size="21.8261px">Auditorium</text>
	
		<text transform="matrix(0.9565 0 0 1 416.7808 776.7002)" fill="#FFFFFF" font-family="'ProximaNova-Regular'" font-size="21.8261px">Enclose</text>
	<rect id="a01_1_" x="318.24" y="608.01" fill="none" stroke="#EC8FFF" stroke-miterlimit="10" width="260.67" height="282.06"/>
</g>
<g id="landmark-in">
	<path fill="#964CFF" d="M1469.88,832.32c0,5.91-4.79,10.69-10.69,10.69l0,0c-5.91,0-10.69-4.79-10.69-10.69V663.88
		c0-5.91,4.79-10.69,10.69-10.69l0,0c5.91,0,10.69,4.79,10.69,10.69V832.32z"/>
	
		<text transform="matrix(0.9565 0 0 1 1323.0889 750.3018)" fill="#FFFFFF" font-family="'ProximaNova-Regular'" font-size="21.8261px">ENTRANCE</text>
</g>
<g id="landmarks-zone-b">
	<g id="b06">
		
			<text id="S06" transform="matrix(0.9565 0 0 1 723.9849 700.3838)" fill="#FFFFFF" font-family="'ProximaNova-Regular'" font-size="21.8261px">S06</text>
		<rect x="684.5" y="642.5" fill="none" stroke="#9CDCFF" stroke-miterlimit="10" width="112" height="107"/>
	</g>
	<g id="b07">
		
			<text id="S07" transform="matrix(0.9565 0 0 1 835.9849 700.3838)" fill="#FFFFFF" font-family="'ProximaNova-Regular'" font-size="21.8261px">S07</text>
		<rect x="796.5" y="642.5" fill="none" stroke="#9CDCFF" stroke-miterlimit="10" width="112" height="107"/>
	</g>
	<g id="b08">
		
			<text id="S08" transform="matrix(0.9565 0 0 1 947.9849 700.3838)" fill="#FFFFFF" font-family="'ProximaNova-Regular'" font-size="21.8261px">S08</text>
		<rect x="908.5" y="642.5" fill="none" stroke="#9CDCFF" stroke-miterlimit="10" width="112" height="107"/>
	</g>
	<g id="b09">
		
			<text id="S09" transform="matrix(0.9565 0 0 1 1059.9849 700.3838)" fill="#FFFFFF" font-family="'ProximaNova-Regular'" font-size="21.8261px">S09</text>
		<rect x="1020.5" y="642.5" fill="none" stroke="#9CDCFF" stroke-miterlimit="10" width="112" height="107"/>
	</g>
	<g id="b10">
		
			<text id="S10" transform="matrix(0.9565 0 0 1 1171.9849 700.3838)" fill="#FFFFFF" font-family="'ProximaNova-Regular'" font-size="21.8261px">S10</text>
		<rect x="1132.5" y="642.5" fill="none" stroke="#9CDCFF" stroke-miterlimit="10" width="112" height="107"/>
	</g>
	<g id="b01">
		
			<text id="S01" transform="matrix(0.9565 0 0 1 1171.9849 806.3838)" fill="#FFFFFF" font-family="'ProximaNova-Regular'" font-size="21.8261px">S01</text>
		<rect x="1132.5" y="748.5" fill="none" stroke="#9CDCFF" stroke-miterlimit="10" width="112" height="107"/>
	</g>
	<g id="b02">
		
			<text id="S02" transform="matrix(0.9565 0 0 1 1059.9849 806.3838)" fill="#FFFFFF" font-family="'ProximaNova-Regular'" font-size="21.8261px">S02</text>
		<rect x="1020.5" y="748.5" fill="none" stroke="#9CDCFF" stroke-miterlimit="10" width="112" height="107"/>
	</g>
	<g id="b03">
		
			<text id="S03" transform="matrix(0.9565 0 0 1 947.9849 806.3838)" fill="#FFFFFF" font-family="'ProximaNova-Regular'" font-size="21.8261px">S03</text>
		<rect x="908.5" y="748.5" fill="none" stroke="#9CDCFF" stroke-miterlimit="10" width="112" height="107"/>
	</g>
	<g id="b04">
		
			<text id="S04" transform="matrix(0.9565 0 0 1 835.9849 806.3838)" fill="#FFFFFF" font-family="'ProximaNova-Regular'" font-size="21.8261px">S04</text>
		<rect x="796.5" y="748.5" fill="none" stroke="#9CDCFF" stroke-miterlimit="10" width="112" height="107"/>
	</g>
	<g id="b05">
		
			<text id="S05" transform="matrix(0.9565 0 0 1 723.9849 806.3838)" fill="#FFFFFF" font-family="'ProximaNova-Regular'" font-size="21.8261px">S05</text>
		<rect x="684.5" y="748.5" fill="none" stroke="#9CDCFF" stroke-miterlimit="10" width="112" height="107"/>
	</g>
</g>
</svg>
