<svg xmlns="http://www.w3.org/2000/svg" viewBox="0 0 511.86 512"><defs><style>.cls-1{fill:#fff;}</style></defs><title>3DAsset 1</title><g id="Layer_2" data-name="Layer 2"><g id="Capa_1" data-name="Capa 1"><path class="cls-1" d="M75,0H15A15,15,0,0,0,0,15V76a15,15,0,1,0,30,0V30H75A15,15,0,1,0,75,0Z"/><path class="cls-1" d="M496.86,0h-60a15,15,0,1,0,0,30h45V76a15,15,0,1,0,30,0V15A15,15,0,0,0,496.86,0Z"/><path class="cls-1" d="M75,481.86H30v-46a15,15,0,1,0-30,0v61a15,15,0,0,0,15,15H75a15,15,0,1,0,0-30Z"/><path class="cls-1" d="M496.86,420.88a15,15,0,0,0-15,15v46h-45a15,15,0,0,0,0,30h60a15,15,0,0,0,15-15v-61A15,15,0,0,0,496.86,420.88Z"/><path class="cls-1" d="M472.3,123,263.44,2a15,15,0,0,0-15,0L39.47,123A15.06,15.06,0,0,0,32,136V376a15,15,0,0,0,7.63,13.06L248.41,510a15,15,0,0,0,15,0l208.7-120.92.1-.06c4.84-3.49,7.45-6.42,7.52-12.82,0-.06,0-.12,0-.18V136A15.06,15.06,0,0,0,472.3,123ZM240.93,471,77.11,376.07l126.3-72.43a15,15,0,0,0-14.92-26L62,350.12V161.91l179,102.77Zm15-232.28L77.08,136,255.93,32.33,434.77,135.94Zm194,111.41-126.51-72.5a15,15,0,0,0-14.92,26l126.3,72.43L270.92,471V264.68l179-102.77V350.12Z"/></g></g></svg>