<svg width="351" height="512" viewBox="0 0 351 512" fill="none" xmlns="http://www.w3.org/2000/svg">
<path d="M336.334 0H15C6.716 0 0 6.716 0 15V497C0 503.067 3.655 508.536 9.26 510.858C11.116 511.627 13.065 512 14.997 512C18.901 512 22.737 510.477 25.607 507.606L175.67 357.545L325.727 507.606C330.017 511.896 336.469 513.179 342.074 510.858C347.679 508.536 351.334 503.067 351.334 497V15C351.334 6.716 344.618 0 336.334 0ZM175.669 321.332C171.691 321.332 167.876 322.912 165.063 325.726L30 460.787V30H321.333V460.785L186.276 325.726C183.463 322.912 179.648 321.332 175.669 321.332Z" fill="white"/>
<path d="M331 24.5H17.5V486.5L178 343.5L331 486.5V24.5Z" fill="white" stroke="white"/>
</svg>
