<?xml version="1.0"?>
<svg xmlns="http://www.w3.org/2000/svg" xmlns:xlink="http://www.w3.org/1999/xlink" version="1.1" id="Capa_1" x="0px" y="0px" viewBox="0 0 512 512" style="enable-background:new 0 0 512 512;" xml:space="preserve" width="512px" height="512px" class=""><g><g>
	<g>
		<path d="M215.946,80.043H49.988c-5.521,0-9.998,4.477-9.998,9.997v39.99c0,5.521,4.477,9.997,9.998,9.997h165.959    c5.521,0,9.998-4.477,9.998-9.997v-39.99C225.944,84.52,221.467,80.043,215.946,80.043z M205.949,120.033H59.985v-19.995h145.964    V120.033z" data-original="#000000" class="active-path" data-old_color="#000000" fill="#FFFFFF"/>
	</g>
</g><g>
	<g>
		<path d="M215.946,168.021H49.988c-5.521,0-9.998,4.477-9.998,9.998s4.477,9.997,9.998,9.997h165.959    c5.521,0,9.998-4.477,9.998-9.997S221.467,168.021,215.946,168.021z" data-original="#000000" class="active-path" data-old_color="#000000" fill="#FFFFFF"/>
	</g>
</g><g>
	<g>
		<path d="M215.946,208.011H49.988c-5.521,0-9.998,4.477-9.998,9.997s4.477,9.998,9.998,9.998h165.959    c5.521,0,9.998-4.477,9.998-9.998S221.467,208.011,215.946,208.011z" data-original="#000000" class="active-path" data-old_color="#000000" fill="#FFFFFF"/>
	</g>
</g><g>
	<g>
		<path d="M215.946,259.999H49.988c-5.521,0-9.998,4.477-9.998,9.998v119.97c0,5.521,4.477,9.997,9.998,9.997h165.959    c5.521,0,9.998-4.477,9.998-9.997v-119.97C225.944,264.475,221.467,259.999,215.946,259.999z M59.985,279.995h137.822    l-61.341,61.342l-18.924-18.924c-3.905-3.903-10.234-3.903-14.14,0L59.985,365.83V279.995z M205.949,379.969H74.125l36.348-36.348    l18.924,18.924c3.905,3.903,10.233,3.903,14.139,0l62.413-62.414V379.969z" data-original="#000000" class="active-path" data-old_color="#000000" fill="#FFFFFF"/>
	</g>
</g><g>
	<g>
		<path d="M502.003,20.058H295.99c-16.325,0-30.847,7.859-39.989,19.99c-9.142-12.131-23.664-19.99-39.989-19.99H9.997    C4.477,20.058,0,24.535,0,30.056v411.836v40.053c0,5.521,4.477,9.998,9.997,9.998h45.989c5.521,0,9.998-4.477,9.998-9.998    s-4.477-9.997-9.998-9.997H19.995v-20.058H216.01c13.068,0,24.209,8.386,28.339,20.058h-89.388c-5.521,0-9.997,4.477-9.997,9.997    s4.477,9.998,9.997,9.998h346.914c5.521,0,9.998-4.477,9.998-9.998L512,30.056C512,24.535,507.523,20.058,502.003,20.058z     M245.939,70.108v371.746c-8.353-6.25-18.715-9.96-29.929-9.96H19.995V40.053H216.01c15.892,0,28.935,12.401,29.98,28.033    C245.963,68.758,245.939,69.43,245.939,70.108z M491.878,471.946H267.651c4.13-11.671,15.271-20.058,28.339-20.058h195.888    V471.946z M492.005,431.894H295.99c-11.212,0-21.575,3.709-29.929,9.961V70.109c0-0.678-0.024-1.351-0.051-2.021    c1.045-15.632,14.088-28.034,29.98-28.034h196.015V431.894z" data-original="#000000" class="active-path" data-old_color="#000000" fill="#FFFFFF"/>
	</g>
</g><g>
	<g>
		<path d="M462.012,259.999H296.054c-5.521,0-9.998,4.477-9.998,9.998s4.476,9.997,9.998,9.997h165.959    c5.521,0,9.998-4.477,9.998-9.997S467.533,259.999,462.012,259.999z" data-original="#000000" class="active-path" data-old_color="#000000" fill="#FFFFFF"/>
	</g>
</g><g>
	<g>
		<path d="M462.012,299.989H296.054c-5.521,0-9.998,4.477-9.998,9.997s4.476,9.997,9.998,9.997h165.959    c5.521,0,9.998-4.477,9.998-9.997S467.533,299.989,462.012,299.989z" data-original="#000000" class="active-path" data-old_color="#000000" fill="#FFFFFF"/>
	</g>
</g><g>
	<g>
		<path d="M462.012,339.979H296.054c-5.521,0-9.998,4.477-9.998,9.998c0,5.521,4.476,9.997,9.998,9.997h165.959    c5.521,0,9.998-4.477,9.998-9.997C472.01,344.456,467.533,339.979,462.012,339.979z" data-original="#000000" class="active-path" data-old_color="#000000" fill="#FFFFFF"/>
	</g>
</g><g>
	<g>
		<path d="M462.012,379.969H296.054c-5.521,0-9.998,4.477-9.998,9.997s4.476,9.997,9.998,9.997h165.959    c5.521,0,9.998-4.477,9.998-9.997S467.533,379.969,462.012,379.969z" data-original="#000000" class="active-path" data-old_color="#000000" fill="#FFFFFF"/>
	</g>
</g><g>
	<g>
		<path d="M386.034,82.972c-1.859-1.86-4.429-2.929-7.068-2.929c-2.629,0-5.209,1.069-7.067,2.929c-1.86,1.86-2.93,4.439-2.93,7.068    s1.07,5.209,2.93,7.067c1.868,1.861,4.438,2.93,7.067,2.93c2.629,0,5.209-1.07,7.068-2.93c1.87-1.859,2.929-4.438,2.929-7.067    S387.904,84.832,386.034,82.972z" data-original="#000000" class="active-path" data-old_color="#000000" fill="#FFFFFF"/>
	</g>
</g><g>
	<g>
		<path d="M462.012,80.043h-37.118c-5.521,0-9.997,4.477-9.997,9.997s4.477,9.998,9.997,9.998h27.12v99.975H306.051v-99.975h26.866    c5.521,0,9.997-4.477,9.997-9.998s-4.477-9.997-9.997-9.997h-36.864c-5.521,0-9.998,4.477-9.998,9.997v119.97    c0,5.522,4.476,9.997,9.998,9.997h165.959c5.521,0,9.998-4.477,9.998-9.997V90.041C472.01,84.52,467.533,80.043,462.012,80.043z" data-original="#000000" class="active-path" data-old_color="#000000" fill="#FFFFFF"/>
	</g>
</g><g>
	<g>
		<path d="M113.371,474.875c-1.859-1.86-4.438-2.929-7.067-2.929c-2.629,0-5.209,1.069-7.068,2.929    c-1.86,1.861-2.929,4.439-2.929,7.068s1.069,5.209,2.929,7.067c1.859,1.859,4.439,2.93,7.068,2.93c2.629,0,5.209-1.07,7.067-2.93    c1.87-1.859,2.93-4.438,2.93-7.067S115.24,476.735,113.371,474.875z" data-original="#000000" class="active-path" data-old_color="#000000" fill="#FFFFFF"/>
	</g>
</g></g> </svg>
