<?xml version="1.0"?>
<svg xmlns="http://www.w3.org/2000/svg" id="Capa_1" enable-background="new 0 0 512 512" height="512px" viewBox="0 0 512 512" width="512px" class=""><g><g><path d="m83.857 356.746h103.285v30h-103.285z" data-original="#000000" class="active-path" data-old_color="#000000" fill="#FFFFFF"/><path d="m512 202.998c0-103.191-83.952-187.144-187.143-187.144s-187.144 83.952-187.144 187.144c0 5.377.241 10.698.688 15.962h-138.401v236.59h94.866l40.631 40.597 40.637-40.597h94.867v-73.32c17.064 5.137 35.141 7.911 53.856 7.911 30.167 0 59.97-7.314 86.563-21.198l100.561 21.205-21.926-99.148c14.375-26.958 21.945-57.252 21.945-88.002zm-270.999 222.551h-77.285l-28.217 28.19-28.215-28.19h-77.284v-176.59h113.432c3.454 13.629 8.403 26.668 14.67 38.929h-74.245v30h93.379c17.04 21.845 38.814 39.819 63.765 52.379zm231.64-74.357-65.949-13.907-4.923 2.769c-23.362 13.141-49.958 20.087-76.911 20.087-86.649 0-157.144-70.494-157.144-157.143s70.494-157.144 157.144-157.144c86.648 0 157.142 70.494 157.142 157.144 0 27.492-7.199 54.541-20.819 78.222l-2.898 5.04z" data-original="#000000" class="active-path" data-old_color="#000000" fill="#FFFFFF"/><path d="m346.729 172.753v-36.643h-133.285v133.286h133.285v-36.643l48.857 36.643h41.172v-133.286h-41.172zm-30 66.643h-73.285v-73.286h73.285zm90.03-73.286v73.286h-1.172l-48.857-36.644 48.857-36.643h1.172z" data-original="#000000" class="active-path" data-old_color="#000000" fill="#FFFFFF"/></g></g> </svg>
