<?xml version="1.0"?>
<svg xmlns="http://www.w3.org/2000/svg" id="Layer_1" enable-background="new 0 0 512 512" height="512px" viewBox="0 0 512 512" width="512px" class=""><g><g><path d="m448.8 0h-385.6c-8.284 0-15 6.716-15 15v482c0 8.284 6.716 15 15 15h273.133c3.979 0 7.794-1.58 10.606-4.394l112.467-112.466c2.813-2.813 4.394-6.628 4.394-10.606v-369.534c0-8.284-6.716-15-15-15zm-97.467 460.787v-61.254h61.254zm82.467-91.254h-97.467c-8.284 0-15 6.716-15 15v97.467h-243.133v-452h355.6z" data-original="#000000" class="active-path" data-old_color="#000000" fill="#FFFFFF"/><path d="m256 355.39c79.271 0 143.533-64.262 143.533-143.533s-64.262-143.534-143.533-143.534-143.533 64.262-143.533 143.533 64.262 143.534 143.533 143.534zm113.534-143.534c0 15.079-2.958 29.843-8.653 43.522l-47.433-47.47c-6.674-6.682-6.674-17.555-.006-24.232l36.113-36.125c12.969 18.813 19.979 41.149 19.979 64.305zm-152.432-28.238c.677-.685 21.766-18.715 21.766-50.713v-33.295c5.649-.855 11.379-1.287 17.133-1.287 26.911 0 52.969 9.691 73.389 26.969l-37.168 37.18c-18.348 18.371-18.348 48.264.003 66.639l52.949 52.99c-21.43 27.303-53.974 43.289-89.174 43.289-19.301 0-37.812-4.746-54.371-13.843l16.778-16.792c18.645-18.644 28.736-57.039-1.358-86.846-6.674-6.682-6.674-17.555.053-24.291zm-8.235-75.093v24.379c0 12.042-4.839 21.424-13.046 29.567-18.348 18.371-18.348 48.264.057 66.693 18.193 18.014 8.167 37.526 1.312 44.381l-19.991 20.008c-22.217-21.349-34.731-50.476-34.731-81.698-.001-45.082 26.498-85.164 66.399-103.33z" data-original="#000000" class="active-path" data-old_color="#000000" fill="#FFFFFF"/></g></g> </svg>
