<?xml version="1.0" encoding="utf-8"?>
<svg xmlns="http://www.w3.org/2000/svg" style="margin: auto; background: none; display: block; shape-rendering: auto;" width="233" height="81" preserveAspectRatio="xMidYMid">
<style type="text/css">
  text {
    text-anchor: middle; font-size: 32px; opacity: 0;
  }
</style>
<g style="transform-origin:116.5px 40.5px;transform:scale(1)">
<g transform="translate(116.5,40.5)">
  <g transform="translate(0,0)"><g class="path" style="opacity: 1; transform-origin: -81.725px 0.40334px; animation: 1s linear -0.609231s infinite normal forwards running fade-780c1952-ffbe-4f3c-9ef7-b2440dbd81d2;"><path d="M1.12-1.34L2.34-3.74L2.34-3.74Q3.17-3.01 4.43-2.56L4.43-2.56L4.43-2.56Q5.70-2.11 7.14-2.11L7.14-2.11L7.14-2.11Q8.93-2.11 9.84-2.70L9.84-2.70L9.84-2.70Q10.75-3.30 10.75-4.22L10.75-4.22L10.75-4.22Q10.75-4.70 10.58-5.12L10.58-5.12L10.58-5.12Q10.40-5.54 9.94-5.92L9.94-5.92L9.94-5.92Q9.47-6.30 8.67-6.67L8.67-6.67L8.67-6.67Q7.87-7.04 6.59-7.49L6.59-7.49L6.59-7.49Q4.22-8.29 3.07-9.39L3.07-9.39L3.07-9.39Q1.92-10.50 1.92-12.45L1.92-12.45L1.92-12.45Q1.92-13.41 2.35-14.24L2.35-14.24L2.35-14.24Q2.78-15.07 3.60-15.70L3.60-15.70L3.60-15.70Q4.42-16.32 5.58-16.67L5.58-16.67L5.58-16.67Q6.75-17.02 8.26-17.02L8.26-17.02L8.26-17.02Q9.89-17.02 11.12-16.69L11.12-16.69L11.12-16.69Q12.35-16.35 13.34-15.84L13.34-15.84L12.54-13.47L12.54-13.47Q11.68-13.98 10.58-14.30L10.58-14.30L10.58-14.30Q9.47-14.62 8.13-14.62L8.13-14.62L8.13-14.62Q6.46-14.62 5.60-13.95L5.60-13.95L5.60-13.95Q4.74-13.28 4.74-12.48L4.74-12.48L4.74-12.48Q4.74-12.10 4.88-11.78L4.88-11.78L4.88-11.78Q5.02-11.46 5.41-11.17L5.41-11.17L5.41-11.17Q5.79-10.88 6.43-10.59L6.43-10.59L6.43-10.59Q7.07-10.30 8.03-9.98L8.03-9.98L8.03-9.98Q9.60-9.44 10.69-8.88L10.69-8.88L10.69-8.88Q11.78-8.32 12.45-7.65L12.45-7.65L12.45-7.65Q13.12-6.98 13.41-6.19L13.41-6.19L13.41-6.19Q13.70-5.41 13.70-4.45L13.70-4.45L13.70-4.45Q13.70-3.33 13.22-2.43L13.22-2.43L13.22-2.43Q12.74-1.54 11.87-0.91L11.87-0.91L11.87-0.91Q11.01-0.29 9.78 0.05L9.78 0.05L9.78 0.05Q8.54 0.38 7.04 0.38L7.04 0.38L7.04 0.38Q5.12 0.38 3.62-0.10L3.62-0.10L3.62-0.10Q2.11-0.58 1.12-1.34L1.12-1.34" fill="#03dac5" stroke="none" stroke-width="none" transform="translate(-89.13499975204468,8.72334092360277)" style="fill: rgb(3, 218, 197);"></path></g><g class="path" style="opacity: 1; transform-origin: -65.375px 0.40334px; animation: 1s linear -0.558462s infinite normal forwards running fade-780c1952-ffbe-4f3c-9ef7-b2440dbd81d2;"><path d="M31.01-7.14L19.36-7.14L19.36-7.14Q19.65-4.80 20.99-3.49L20.99-3.49L20.99-3.49Q22.34-2.18 24.54-2.18L24.54-2.18L24.54-2.18Q25.98-2.18 27.14-2.48L27.14-2.48L27.14-2.48Q28.29-2.78 29.34-3.26L29.34-3.26L30.02-0.80L30.02-0.80Q28.86-0.26 27.42 0.06L27.42 0.06L27.42 0.06Q25.98 0.38 24.19 0.38L24.19 0.38L24.19 0.38Q22.40 0.38 20.96-0.21L20.96-0.21L20.96-0.21Q19.52-0.80 18.51-1.90L18.51-1.90L18.51-1.90Q17.50-3.01 16.96-4.62L16.96-4.62L16.96-4.62Q16.42-6.24 16.42-8.32L16.42-8.32L16.42-8.32Q16.42-10.18 16.96-11.78L16.96-11.78L16.96-11.78Q17.50-13.38 18.50-14.54L18.50-14.54L18.50-14.54Q19.49-15.71 20.86-16.37L20.86-16.37L20.86-16.37Q22.24-17.02 23.94-17.02L23.94-17.02L23.94-17.02Q25.73-17.02 27.07-16.42L27.07-16.42L27.07-16.42Q28.42-15.81 29.31-14.75L29.31-14.75L29.31-14.75Q30.21-13.70 30.66-12.29L30.66-12.29L30.66-12.29Q31.10-10.88 31.10-9.31L31.10-9.31L31.10-9.31Q31.10-8.19 31.01-7.14L31.01-7.14zM23.87-14.53L23.87-14.53L23.87-14.53Q21.98-14.53 20.78-13.25L20.78-13.25L20.78-13.25Q19.58-11.97 19.33-9.47L19.33-9.47L28.45-9.47L28.45-9.47Q28.45-11.90 27.23-13.22L27.23-13.22L27.23-13.22Q26.02-14.53 23.87-14.53" fill="#03dac5" stroke="none" stroke-width="none" transform="translate(-89.13499975204468,8.72334092360277)" style="fill: rgb(3, 218, 197);"></path></g><g class="path" style="opacity: 1; transform-origin: -46.8px 0.40334px; animation: 1s linear -0.507692s infinite normal forwards running fade-780c1952-ffbe-4f3c-9ef7-b2440dbd81d2;"><path d="M33.82-8.22L33.82-8.22L33.82-8.22Q33.82-10.08 34.40-11.70L34.40-11.70L34.40-11.70Q34.98-13.31 36.02-14.50L36.02-14.50L36.02-14.50Q37.06-15.68 38.51-16.35L38.51-16.35L38.51-16.35Q39.97-17.02 41.70-17.02L41.70-17.02L41.70-17.02Q43.14-17.02 44.30-16.53L44.30-16.53L44.30-16.53Q45.47-16.03 46.34-15.30L46.34-15.30L46.34-16.64L48.96-16.64L48.96-4.03L48.96-4.03Q48.96-2.82 49.55-2.45L49.55-2.45L49.55-2.45Q50.14-2.08 50.85-2.08L50.85-2.08L50.24 0.16L50.24 0.16Q47.17 0.16 46.53-2.34L46.53-2.34L46.53-2.34Q46.14-1.82 45.65-1.33L45.65-1.33L45.65-1.33Q45.15-0.83 44.51-0.45L44.51-0.45L44.51-0.45Q43.87-0.06 43.07 0.16L43.07 0.16L43.07 0.16Q42.27 0.38 41.31 0.38L41.31 0.38L41.31 0.38Q39.74 0.38 38.38-0.22L38.38-0.22L38.38-0.22Q37.02-0.83 36.02-1.95L36.02-1.95L36.02-1.95Q35.01-3.07 34.42-4.66L34.42-4.66L34.42-4.66Q33.82-6.24 33.82-8.22zM41.95-2.18L41.95-2.18L41.95-2.18Q43.17-2.18 44.26-2.75L44.26-2.75L44.26-2.75Q45.34-3.33 46.08-4.26L46.08-4.26L46.08-13.18L46.08-13.18Q45.22-13.79 44.18-14.16L44.18-14.16L44.18-14.16Q43.14-14.53 41.98-14.53L41.98-14.53L41.98-14.53Q40.83-14.53 39.87-14.08L39.87-14.08L39.87-14.08Q38.91-13.63 38.22-12.82L38.22-12.82L38.22-12.82Q37.54-12 37.15-10.85L37.15-10.85L37.15-10.85Q36.77-9.70 36.77-8.32L36.77-8.32L36.77-8.32Q36.77-6.98 37.15-5.84L37.15-5.84L37.15-5.84Q37.54-4.70 38.24-3.89L38.24-3.89L38.24-3.89Q38.94-3.07 39.89-2.62L39.89-2.62L39.89-2.62Q40.83-2.18 41.95-2.18" fill="#03dac5" stroke="none" stroke-width="none" transform="translate(-89.13499975204468,8.72334092360277)" style="fill: rgb(3, 218, 197);"></path></g><g class="path" style="opacity: 1; transform-origin: -29.5px 0.213341px; animation: 1s linear -0.456923s infinite normal forwards running fade-780c1952-ffbe-4f3c-9ef7-b2440dbd81d2;"><path d="M64.58-16.83L63.71-13.86L63.71-13.86Q63.10-14.11 62.27-14.11L62.27-14.11L62.27-14.11Q61.38-14.11 60.53-13.73L60.53-13.73L60.53-13.73Q59.68-13.34 59.02-12.58L59.02-12.58L59.02-12.58Q58.37-11.81 57.97-10.61L57.97-10.61L57.97-10.61Q57.57-9.41 57.57-7.78L57.57-7.78L57.57 0L54.69 0L54.69-16.64L57.47-16.64L57.47-13.02L57.47-13.02Q57.76-13.79 58.24-14.53L58.24-14.53L58.24-14.53Q58.72-15.26 59.38-15.81L59.38-15.81L59.38-15.81Q60.03-16.35 60.90-16.69L60.90-16.69L60.90-16.69Q61.76-17.02 62.82-17.02L62.82-17.02L62.82-17.02Q63.30-17.02 63.76-16.98L63.76-16.98L63.76-16.98Q64.22-16.93 64.58-16.83L64.58-16.83" fill="#03dac5" stroke="none" stroke-width="none" transform="translate(-89.13499975204468,8.72334092360277)" style="fill: rgb(3, 218, 197);"></path></g><g class="path" style="opacity: 1; transform-origin: -17.325px 0.40334px; animation: 1s linear -0.406154s infinite normal forwards running fade-780c1952-ffbe-4f3c-9ef7-b2440dbd81d2;"><path d="M77.98-16.03L77.12-13.60L77.12-13.60Q76.19-14.05 75.39-14.26L75.39-14.26L75.39-14.26Q74.59-14.46 73.60-14.46L73.60-14.46L73.60-14.46Q72.48-14.46 71.50-14.05L71.50-14.05L71.50-14.05Q70.53-13.63 69.82-12.85L69.82-12.85L69.82-12.85Q69.12-12.06 68.72-10.94L68.72-10.94L68.72-10.94Q68.32-9.82 68.32-8.38L68.32-8.38L68.32-8.38Q68.32-7.07 68.69-5.95L68.69-5.95L68.69-5.95Q69.06-4.83 69.73-3.98L69.73-3.98L69.73-3.98Q70.40-3.14 71.33-2.66L71.33-2.66L71.33-2.66Q72.26-2.18 73.41-2.18L73.41-2.18L73.41-2.18Q74.62-2.18 75.49-2.43L75.49-2.43L75.49-2.43Q76.35-2.69 77.34-3.23L77.34-3.23L78.24-0.80L78.24-0.80Q77.22-0.26 76 0.06L76 0.06L76 0.06Q74.78 0.38 73.22 0.38L73.22 0.38L73.22 0.38Q71.42 0.38 69.98-0.26L69.98-0.26L69.98-0.26Q68.54-0.90 67.52-2.05L67.52-2.05L67.52-2.05Q66.50-3.20 65.94-4.80L65.94-4.80L65.94-4.80Q65.38-6.40 65.38-8.32L65.38-8.32L65.38-8.32Q65.38-10.11 65.94-11.70L65.94-11.70L65.94-11.70Q66.50-13.28 67.55-14.46L67.55-14.46L67.55-14.46Q68.61-15.65 70.10-16.34L70.10-16.34L70.10-16.34Q71.58-17.02 73.44-17.02L73.44-17.02L73.44-17.02Q74.88-17.02 75.94-16.77L75.94-16.77L75.94-16.77Q76.99-16.51 77.98-16.03L77.98-16.03" fill="#03dac5" stroke="none" stroke-width="none" transform="translate(-89.13499975204468,8.72334092360277)" style="fill: rgb(3, 218, 197);"></path></g><g class="path" style="opacity: 1; transform-origin: -0.545002px -3.11666px; animation: 1s linear -0.355385s infinite normal forwards running fade-780c1952-ffbe-4f3c-9ef7-b2440dbd81d2;"><path d="M84.48-23.68L84.48-13.98L84.48-13.98Q85.38-15.30 86.74-16.16L86.74-16.16L86.74-16.16Q88.10-17.02 89.98-17.02L89.98-17.02L89.98-17.02Q92.80-17.02 94.19-15.33L94.19-15.33L94.19-15.33Q95.58-13.63 95.58-10.85L95.58-10.85L95.58 0L92.70 0L92.70-10.53L92.70-10.53Q92.70-12.35 91.89-13.42L91.89-13.42L91.89-13.42Q91.07-14.50 89.54-14.50L89.54-14.50L89.54-14.50Q88.80-14.50 88.08-14.22L88.08-14.22L88.08-14.22Q87.36-13.95 86.72-13.47L86.72-13.47L86.72-13.47Q86.08-12.99 85.50-12.35L85.50-12.35L85.50-12.35Q84.93-11.71 84.48-11.01L84.48-11.01L84.48 0L81.60 0L81.60-23.68L84.48-23.68" fill="#03dac5" stroke="none" stroke-width="none" transform="translate(-89.13499975204468,8.72334092360277)" style="fill: rgb(3, 218, 197);"></path></g><g class="path" style="opacity: 1; transform-origin: 12.845px 0.403341px; animation: 1s linear -0.304615s infinite normal forwards running fade-780c1952-ffbe-4f3c-9ef7-b2440dbd81d2;"><path d="M103.42-16.64L103.42 0L100.54 0L100.54-16.64L103.42-16.64" fill="#03dac5" stroke="none" stroke-width="none" transform="translate(-89.13499975204468,8.72334092360277)" style="fill: rgb(3, 218, 197);"></path></g><g class="path" style="opacity: 1; transform-origin: 12.85px -12.7817px; animation: 1s linear -0.253846s infinite normal forwards running fade-780c1952-ffbe-4f3c-9ef7-b2440dbd81d2;"><path d="M101.98-19.49L101.98-19.49L101.98-19.49Q101.15-19.49 100.56-20.08L100.56-20.08L100.56-20.08Q99.97-20.67 99.97-21.50L99.97-21.50L99.97-21.50Q99.97-22.43 100.51-22.98L100.51-22.98L100.51-22.98Q101.06-23.52 101.98-23.52L101.98-23.52L101.98-23.52Q102.82-23.52 103.41-22.93L103.41-22.93L103.41-22.93Q104.00-22.34 104.00-21.50L104.00-21.50L104.00-21.50Q104.00-20.58 103.46-20.03L103.46-20.03L103.46-20.03Q102.91-19.49 101.98-19.49" fill="#03dac5" stroke="none" stroke-width="none" transform="translate(-89.13499975204468,8.72334092360277)" style="fill: rgb(3, 218, 197);"></path></g><g class="path" style="opacity: 1; transform-origin: 26.4px 0.213341px; animation: 1s linear -0.203077s infinite normal forwards running fade-780c1952-ffbe-4f3c-9ef7-b2440dbd81d2;"><path d="M111.33-16.64L111.33-13.86L111.33-13.86Q112.22-15.20 113.62-16.11L113.62-16.11L113.62-16.11Q115.01-17.02 116.93-17.02L116.93-17.02L116.93-17.02Q119.74-17.02 121.14-15.33L121.14-15.33L121.14-15.33Q122.53-13.63 122.53-10.85L122.53-10.85L122.53 0L119.65 0L119.65-10.53L119.65-10.53Q119.65-12.35 118.82-13.42L118.82-13.42L118.82-13.42Q117.98-14.50 116.45-14.50L116.45-14.50L116.45-14.50Q115.71-14.50 115.01-14.22L115.01-14.22L115.01-14.22Q114.30-13.95 113.65-13.47L113.65-13.47L113.65-13.47Q112.99-12.99 112.43-12.35L112.43-12.35L112.43-12.35Q111.87-11.71 111.42-11.01L111.42-11.01L111.42 0L108.54 0L108.54-16.64L111.33-16.64" fill="#03dac5" stroke="none" stroke-width="none" transform="translate(-89.13499975204468,8.72334092360277)" style="fill: rgb(3, 218, 197);"></path></g><g class="path" style="opacity: 1; transform-origin: 44.675px 3.92334px; animation: 1s linear -0.152308s infinite normal forwards running fade-780c1952-ffbe-4f3c-9ef7-b2440dbd81d2;"><path d="M134.08-17.02L134.08-17.02L134.08-17.02Q135.52-17.02 136.66-16.54L136.66-16.54L136.66-16.54Q137.79-16.06 138.62-15.36L138.62-15.36L138.62-16.64L141.25-16.64L141.25-0.38L141.25-0.38Q141.25 1.70 140.70 3.17L140.70 3.17L140.70 3.17Q140.16 4.64 139.15 5.58L139.15 5.58L139.15 5.58Q138.14 6.53 136.74 6.98L136.74 6.98L136.74 6.98Q135.33 7.42 133.60 7.42L133.60 7.42L133.60 7.42Q132.10 7.42 130.72 7.07L130.72 7.07L130.72 7.07Q129.34 6.72 128.26 6.02L128.26 6.02L129.31 3.52L129.31 3.52Q130.08 4.13 131.10 4.53L131.10 4.53L131.10 4.53Q132.13 4.93 133.60 4.93L133.60 4.93L133.60 4.93Q135.87 4.93 137.17 3.74L137.17 3.74L137.17 3.74Q138.46 2.56 138.46-0.10L138.46-0.10L138.46-2.14L138.46-2.14Q137.82-1.38 136.62-0.69L136.62-0.69L136.62-0.69Q135.42 0 133.76 0L133.76 0L133.76 0Q132.35 0 131.01-0.56L131.01-0.56L131.01-0.56Q129.66-1.12 128.64-2.19L128.64-2.19L128.64-2.19Q127.62-3.26 126.99-4.82L126.99-4.82L126.99-4.82Q126.37-6.37 126.37-8.38L126.37-8.38L126.37-8.38Q126.37-10.24 126.98-11.82L126.98-11.82L126.98-11.82Q127.58-13.41 128.62-14.56L128.62-14.56L128.62-14.56Q129.66-15.71 131.07-16.37L131.07-16.37L131.07-16.37Q132.48-17.02 134.08-17.02zM134.40-2.56L134.40-2.56L134.40-2.56Q135.68-2.56 136.70-3.14L136.70-3.14L136.70-3.14Q137.73-3.71 138.37-4.48L138.37-4.48L138.37-13.18L138.37-13.18Q137.63-13.70 136.67-14.11L136.67-14.11L136.67-14.11Q135.71-14.53 134.37-14.53L134.37-14.53L134.37-14.53Q133.38-14.53 132.46-14.13L132.46-14.13L132.46-14.13Q131.55-13.73 130.85-12.96L130.85-12.96L130.85-12.96Q130.14-12.19 129.73-11.09L129.73-11.09L129.73-11.09Q129.31-9.98 129.31-8.54L129.31-8.54L129.31-8.54Q129.31-7.17 129.73-6.06L129.73-6.06L129.73-6.06Q130.14-4.96 130.85-4.18L130.85-4.18L130.85-4.18Q131.55-3.39 132.46-2.98L132.46-2.98L132.46-2.98Q133.38-2.56 134.40-2.56" fill="#03dac5" stroke="none" stroke-width="none" transform="translate(-89.13499975204468,8.72334092360277)" style="fill: rgb(3, 218, 197);"></path></g><g class="path" style="opacity: 1; transform-origin: 68.91px 6.96334px; animation: 1s linear -0.101538s infinite normal forwards running fade-780c1952-ffbe-4f3c-9ef7-b2440dbd81d2;"><path d="M155.90-1.76L155.90-1.76L155.90-1.76Q155.90-2.75 156.46-3.33L156.46-3.33L156.46-3.33Q157.02-3.90 158.05-3.90L158.05-3.90L158.05-3.90Q158.88-3.90 159.54-3.26L159.54-3.26L159.54-3.26Q160.19-2.62 160.19-1.76L160.19-1.76L160.19-1.76Q160.19-0.80 159.58-0.21L159.58-0.21L159.58-0.21Q158.98 0.38 158.05 0.38L158.05 0.38L158.05 0.38Q157.18 0.38 156.54-0.26L156.54-0.26L156.54-0.26Q155.90-0.90 155.90-1.76" fill="#03dac5" stroke="none" stroke-width="none" transform="translate(-89.13499975204468,8.72334092360277)" style="fill: rgb(3, 218, 197);"></path></g><g class="path" style="opacity: 1; transform-origin: 78.51px 6.96334px; animation: 1s linear -0.0507692s infinite normal forwards running fade-780c1952-ffbe-4f3c-9ef7-b2440dbd81d2;"><path d="M165.50-1.76L165.50-1.76L165.50-1.76Q165.50-2.75 166.06-3.33L166.06-3.33L166.06-3.33Q166.62-3.90 167.65-3.90L167.65-3.90L167.65-3.90Q168.48-3.90 169.14-3.26L169.14-3.26L169.14-3.26Q169.79-2.62 169.79-1.76L169.79-1.76L169.79-1.76Q169.79-0.80 169.18-0.21L169.18-0.21L169.18-0.21Q168.58 0.38 167.65 0.38L167.65 0.38L167.65 0.38Q166.78 0.38 166.14-0.26L166.14-0.26L166.14-0.26Q165.50-0.90 165.50-1.76" fill="#03dac5" stroke="none" stroke-width="none" transform="translate(-89.13499975204468,8.72334092360277)" style="fill: rgb(3, 218, 197);"></path></g><g class="path" style="opacity: 1; transform-origin: 88.11px 6.96334px; animation: 1s linear 0s infinite normal forwards running fade-780c1952-ffbe-4f3c-9ef7-b2440dbd81d2;"><path d="M175.10-1.76L175.10-1.76L175.10-1.76Q175.10-2.75 175.66-3.33L175.66-3.33L175.66-3.33Q176.22-3.90 177.25-3.90L177.25-3.90L177.25-3.90Q178.08-3.90 178.74-3.26L178.74-3.26L178.74-3.26Q179.39-2.62 179.39-1.76L179.39-1.76L179.39-1.76Q179.39-0.80 178.78-0.21L178.78-0.21L178.78-0.21Q178.18 0.38 177.25 0.38L177.25 0.38L177.25 0.38Q176.38 0.38 175.74-0.26L175.74-0.26L175.74-0.26Q175.10-0.90 175.10-1.76" fill="#03dac5" stroke="none" stroke-width="none" transform="translate(-89.13499975204468,8.72334092360277)" style="fill: rgb(3, 218, 197);"></path></g></g>
</g>
</g>
<style id="fade-780c1952-ffbe-4f3c-9ef7-b2440dbd81d2" data-anikit="">@keyframes fade-780c1952-ffbe-4f3c-9ef7-b2440dbd81d2
{
  0% {
    animation-timing-function: cubic-bezier(0.2057,0.573,0.3723,0.9184);
    opacity: 1;
  }
  100% {
    opacity: 0;
  }
}</style></svg>