<?xml version="1.0" encoding="utf-8"?>
<!-- Generator: Adobe Illustrator 21.0.0, SVG Export Plug-In . SVG Version: 6.00 Build 0)  -->
<svg version="1.1" id="Layer_1" xmlns="http://www.w3.org/2000/svg" xmlns:xlink="http://www.w3.org/1999/xlink" x="0px" y="0px"
	 width="1720px" height="1400px" viewBox="0 0 1720 1400" enable-background="new 0 0 1720 1400" xml:space="preserve">
<g id="landmark-floor-pre">
	<g id="base_3_">
		<path fill="#2F1558" d="M123.62,559.85c-5.39,3.27-5.2,9.05-0.96,12.52c5.07,4.14,922.07,524.49,922.07,524.49
			s9.78,6.16,19.51,0.87c8.69-4.73,531.14-325.1,531.14-325.1s8.81-5.35,4.48-14.3c-1.04-2.15-2.55-3.52-7.18-6.31
			c-4.62-2.79-903.24-516.59-903.24-516.59s-13.1-7.71-22.35-3.85C664.57,232.62,225.49,498,123.62,559.85z"/>
		<path fill="#170B3A" d="M1054.46,1100.04V1122c0,0,5.92-0.29,11.41-3.18c5.49-2.89,530.05-325.39,530.05-325.39
			s4.85-2.41,5.04-8.19c0.19-5.78-0.17-20.61-0.17-20.61s-1.53,4.62-4.23,6.74c-2.7,2.12-534.74,327.12-534.74,327.12
			S1058.51,1100.23,1054.46,1100.04z"/>
		<path fill="#0E0828" d="M1054.46,1100.04V1122c0,0-5.56-0.29-11.05-3.18c-5.49-2.89-919.41-522.47-919.41-522.47
			s-4.76-2.41-4.95-8.19c-0.19-5.78,0.22-20.61,0.22-20.61s1.55,3.47,4.25,5.59c2.7,2.12,923.93,525.36,923.93,525.36
			S1051,1100.23,1054.46,1100.04z"/>
	</g>
	<path id="bg-outher_1_" fill="none" stroke="#FFFFFF" stroke-miterlimit="10" d="M1062.5,1057.1c-3.8,2.3-9.54,2.65-12.82,0.78
		l-858.6-490c-3.28-1.87-2.86-5.26,0.94-7.56l473.05-286.57c3.8-2.3,9.54-2.65,12.82-0.78l858.6,490c3.28,1.87,2.86,5.26-0.94,7.56
		L1062.5,1057.1z"/>
	<path id="bg-inner_1_" fill="#2F1558" stroke="#EB30FF" stroke-miterlimit="10" d="M1055.28,1010.46c0,0,7.22,4.91,16.76,0.29
		s384.05-236.09,384.05-236.09s8.09-4.05,0.58-10.69L682.5,316.34c0,0-9.54-4.91-16.76-0.29c-7.22,4.62-392.72,236.09-392.72,236.09
		s-5.78,6.07-1.16,9.54C276.49,565.15,1055.28,1010.46,1055.28,1010.46z"/>
	<g id="zone_1_">
		<g id="zone_4_">
			<g>
				<polygon fill="#243A46" points="654.09,545.75 1119.54,811.38 928.6,927.05 463.15,661.42 				"/>
				<polygon fill="#481361" points="850.77,426.61 1316.21,692.24 1121.83,809.99 656.39,544.36 				"/>
				<polygon fill="#002D64" points="1318.19,693.37 1450.89,769.1 1063.28,1003.91 930.58,928.18 				"/>
			</g>
		</g>
		
			<text transform="matrix(0.7065 0.4032 -0.8553 0.5181 838.1268 447.1714)" fill="#9B60C6" font-family="'ProximaNova-Regular'" font-size="16.0892px">ZONE C</text>
		
			<text transform="matrix(0.7065 0.4032 -0.8553 0.5181 1305.5585 713.9288)" fill="#2D71AA" font-family="'ProximaNova-Regular'" font-size="16.0892px">ZONE A</text>
		
			<text transform="matrix(0.7065 0.4032 -0.8553 0.5181 487.7857 659.405)" fill="#628DA0" font-family="'ProximaNova-Regular'" font-size="16.0892px">ZONE B</text>
	</g>
</g>
<g>
	<polygon fill="#D36262" points="751.62,686.8 751.62,683.56 821.81,723.58 822.31,726.83 	"/>
	<polygon fill="#E26D6D" points="881.57,687.42 882.08,690.92 822.56,726.83 822.05,723.58 	"/>
	<polygon fill="#D36262" points="833.11,637.68 833.11,634.43 903.3,674.46 903.81,677.7 	"/>
	<polygon fill="#E26D6D" points="963.06,638.29 963.57,641.79 904.05,677.7 903.54,674.46 	"/>
	<polygon fill="#D36262" points="663.19,637.1 663.19,633.85 733.38,673.88 733.89,677.12 	"/>
	<polygon fill="#E26D6D" points="793.15,637.71 793.66,641.21 734.13,677.12 733.62,673.88 	"/>
	<polygon fill="#D36262" points="593.26,597.22 593.26,593.98 663.45,634 663.96,637.25 	"/>
	<polygon fill="#D36262" points="583.44,684.49 583.44,681.25 653.62,721.27 654.13,724.52 	"/>
	<polygon fill="#E26D6D" points="713.39,685.1 713.9,688.61 654.38,724.52 653.87,721.27 	"/>
	<polygon fill="#D36262" points="514.08,645.19 514.08,641.95 584.27,681.97 584.78,685.22 	"/>
	<polygon fill="#D36262" points="674.17,548.67 674.17,545.43 744.36,585.45 744.87,588.7 	"/>
	<polygon fill="#D36262" points="743.53,587.98 743.53,584.73 813.72,624.75 814.22,628 	"/>
	<polygon fill="#E26D6D" points="873.48,588.59 873.99,592.09 814.47,628 813.96,624.75 	"/>
	<polygon fill="#D36262" points="753.93,500.7 753.93,497.46 824.12,537.48 824.63,540.73 	"/>
	<polygon fill="#D36262" points="823.28,540.01 823.28,536.76 893.47,576.78 893.98,580.03 	"/>
	<polygon fill="#E26D6D" points="953.24,540.62 953.75,544.12 894.23,580.03 893.72,576.78 	"/>
</g>
<g id="landmark-zone-prec">
	<g id="prec19">
		<g>
			<polygon fill="#1899B7" points="1087.62,784.08 1087.47,779.78 1122.5,799.87 1123.33,804.17 			"/>
			<polygon fill="#1DA2CC" points="1163.18,775.35 1163.99,779.99 1123.24,804.17 1122.44,799.87 			"/>
			<polygon fill="#29B7E2" points="1087.35,779.78 1128.01,755.6 1162.74,775.56 1122.44,799.87 			"/>
		</g>
		<g>
			
				<text transform="matrix(0.7065 0.4032 -0.8553 0.5181 1116.6702 776.7998)" fill="#FFFFFF" font-family="'ProximaNova-Regular'" font-size="10.9456px">S19</text>
		</g>
	</g>
	<g id="prec20">
		<g>
			<polygon fill="#1691A5" points="1053.17,764.19 1053.03,759.89 1087.61,779.98 1088.37,784.27 			"/>
			<polygon fill="#20AAE1" points="1053.16,759.89 1093.82,735.7 1127.68,755.45 1087.67,779.98 			"/>
		</g>
		<g>
			
				<text transform="matrix(0.7065 0.4032 -0.8553 0.5181 1080.9653 756.4219)" fill="#FFFFFF" font-family="'ProximaNova-Regular'" font-size="10.9456px">S20</text>
		</g>
	</g>
	<g id="prec21">
		<g>
			<polygon fill="#138591" points="1018.77,744.29 1018.62,739.99 1053.6,760.08 1054.45,764.38 			"/>
			<polygon fill="#0D9FCC" points="1018.39,739.99 1059.05,715.8 1093.49,735.55 1053.48,760.08 			"/>
		</g>
		<g>
			
				<text transform="matrix(0.7065 0.4032 -0.8553 0.5181 1047.8553 737.5275)" fill="#FFFFFF" font-family="'ProximaNova-Regular'" font-size="10.9456px">S21</text>
		</g>
	</g>
	<g id="prec22">
		<g>
			<polygon fill="#10757A" points="983.75,725.55 983.6,721.25 1018.7,740.18 1019.49,744.48 			"/>
			<polygon fill="#0998BA" points="983.62,721.25 1024.29,697.06 1058.72,715.66 1018.71,740.18 			"/>
		</g>
		<g>
			
				<text transform="matrix(0.7065 0.4032 -0.8553 0.5181 1012.2326 717.1978)" fill="#FFFFFF" font-family="'ProximaNova-Regular'" font-size="10.9456px">S22</text>
		</g>
	</g>
	<g id="prec23">
		<g>
			<polygon fill="#10757A" points="948.49,706.47 948.35,702.17 983.45,721.11 984.24,725.41 			"/>
			<polygon fill="#0998BA" points="948.36,702.17 989.03,677.99 1024.04,697.16 983.46,721.11 			"/>
		</g>
		<g>
			
				<text transform="matrix(0.7065 0.4032 -0.8553 0.5181 977.6887 697.4838)" fill="#FFFFFF" font-family="'ProximaNova-Regular'" font-size="10.9456px">S23</text>
		</g>
	</g>
	<g id="prec28">
		<g>
			<polygon fill="#29B7E2" points="1202.63,751.26 1203.44,755.9 1164,780.09 1163.2,775.79 			"/>
			<polygon fill="#7ECBFF" points="1128.11,755.7 1168.2,731.51 1202.63,751.26 1163.2,775.79 			"/>
		</g>
		<g>
			
				<text transform="matrix(0.7065 0.4032 -0.8553 0.5181 1155.3105 752.3055)" fill="#FFFFFF" font-family="'ProximaNova-Regular'" font-size="10.9456px">S28</text>
		</g>
	</g>
	<g id="prec27">
		<g>
			<polygon fill="#29B7E2" points="1093.92,735.8 1134.01,711.61 1167.86,731.37 1128.44,755.89 			"/>
		</g>
		<g>
			
				<text transform="matrix(0.7065 0.4032 -0.8553 0.5181 1120.9038 732.6699)" fill="#FFFFFF" font-family="'ProximaNova-Regular'" font-size="10.9456px">S27</text>
		</g>
	</g>
	<g id="prec10">
		<g>
			<polygon fill="#7A5CA4" points="1164.27,710.5 1164.27,707.25 1221.75,740.34 1222.26,743.59 			"/>
			<polygon fill="#8567B2" points="1261.86,715.16 1262.37,718.66 1222.5,743.59 1221.99,740.34 			"/>
			<polygon fill="#9898FF" points="1164.52,707.25 1204.19,682.57 1261.86,715.16 1221.99,740.34 			"/>
		</g>
		<g>
			
				<text transform="matrix(0.7065 0.4032 -0.8553 0.5181 1201.1365 707.629)" fill="#FFFFFF" font-family="'ProximaNova-Regular'" font-size="10.9456px">M10</text>
		</g>
	</g>
	<g id="prec11">
		<g>
			<polygon fill="#7A5CA4" points="1105.9,676.98 1105.9,673.73 1164.53,707.4 1164.83,710.77 			"/>
			<polygon fill="#8989F4" points="1106.15,673.73 1145.82,649.62 1204.07,682.79 1164.77,707.4 			"/>
		</g>
		<g>
			
				<text transform="matrix(0.7065 0.4032 -0.8553 0.5181 1143.7627 674.8869)" fill="#FFFFFF" font-family="'ProximaNova-Regular'" font-size="10.9456px">M11</text>
		</g>
	</g>
	<g id="prec12">
		<g>
			<polygon fill="#7A5CA4" points="1048.11,644.04 1048.11,640.79 1106.73,674.46 1107.03,677.82 			"/>
			<polygon fill="#7E7EE8" points="1048.36,640.79 1088.03,616.68 1146.27,649.85 1106.98,674.46 			"/>
		</g>
		<g>
			
				<text transform="matrix(0.7065 0.4032 -0.8553 0.5181 1087.5964 642.8323)" fill="#FFFFFF" font-family="'ProximaNova-Regular'" font-size="10.9456px">M12</text>
		</g>
	</g>
	<g id="prec14_1_">
		<g>
			<polygon fill="#7A5CA4" points="990.89,611.09 990.89,607.85 1049.52,641.51 1049.82,644.88 			"/>
			<polygon fill="#7272DB" points="991.14,607.85 1030.81,583.74 1089.06,616.91 1049.76,641.51 			"/>
		</g>
		<g>
			
				<text transform="matrix(0.7065 0.4032 -0.8553 0.5181 1029.2864 609.5558)" fill="#FFFFFF" font-family="'ProximaNova-Regular'" font-size="10.9456px">M13</text>
		</g>
	</g>
	<g id="prec14">
		<g>
			<polygon fill="#7A5CA4" points="933.09,578.15 933.09,574.9 991.72,608.57 992.02,611.94 			"/>
			<polygon fill="#6969CC" points="933.34,574.9 973.01,550.79 1031.26,583.96 991.97,608.57 			"/>
		</g>
		<g>
			
				<text transform="matrix(0.7065 0.4032 -0.8553 0.5181 972.8387 577.3424)" fill="#FFFFFF" font-family="'ProximaNova-Regular'" font-size="10.9456px">M14</text>
		</g>
	</g>
	<g id="prel09">
		<polygon fill="#ED8383" points="754.18,497.46 813.98,461.36 883.88,501.32 824.36,537.48 		"/>
		<g>
			
				<text transform="matrix(0.7065 0.4032 -0.8553 0.5181 808.5941 497.1012)" fill="#FFFFFF" font-family="'ProximaNova-Regular'" font-size="10.9456px">L09</text>
		</g>
	</g>
	<g id="prel07">
		<polygon fill="#FF9898" points="743.78,584.73 803.58,548.63 873.48,588.59 813.96,624.75 		"/>
		<g>
			
				<text transform="matrix(0.7065 0.4032 -0.8553 0.5181 799.541 585.3604)" fill="#FFFFFF" font-family="'ProximaNova-Regular'" font-size="10.9456px">L07</text>
		</g>
	</g>
	<g id="prel06">
		<polygon fill="#FF9898" points="833.36,634.43 893.16,598.33 963.06,638.29 903.54,674.46 		"/>
		<g>
			
				<text transform="matrix(0.7065 0.4032 -0.8553 0.5181 887.6268 635.6295)" fill="#FFFFFF" font-family="'ProximaNova-Regular'" font-size="10.9456px">L06</text>
		</g>
	</g>
	<g id="prel08">
		<polygon fill="#ED8383" points="674.42,545.43 734.23,509.33 804.13,549.29 744.6,585.45 		"/>
		<g>
			
				<text transform="matrix(0.7065 0.4032 -0.8553 0.5181 729.2244 545.2318)" fill="#FFFFFF" font-family="'ProximaNova-Regular'" font-size="10.9456px">L08</text>
		</g>
	</g>
	<g id="prec26">
		<g>
			<polygon fill="#20AAE1" points="1059.15,715.9 1099.24,691.72 1133.67,711.47 1094.25,735.99 			"/>
		</g>
		<g>
			
				<text transform="matrix(0.7065 0.4032 -0.8553 0.5181 1086.4432 713.0032)" fill="#FFFFFF" font-family="'ProximaNova-Regular'" font-size="10.9456px">S26</text>
		</g>
	</g>
	<g id="prec25">
		<g>
			<polygon fill="#0D9FCC" points="1024.38,697.16 1064.47,672.97 1098.9,691.57 1059.48,716.09 			"/>
		</g>
		<g>
			
				<text transform="matrix(0.7065 0.4032 -0.8553 0.5181 1051.7871 693.2254)" fill="#FFFFFF" font-family="'ProximaNova-Regular'" font-size="10.9456px">S25</text>
		</g>
	</g>
	<g id="prec24">
		<g>
			<polygon fill="#0D9FCC" points="989.13,678.09 1029.8,652.75 1064.81,672.5 1024.22,697.02 			"/>
		</g>
		<g>
			
				<text transform="matrix(0.7065 0.4032 -0.8553 0.5181 1017.25 673.5153)" fill="#FFFFFF" font-family="'ProximaNova-Regular'" font-size="10.9456px">S24</text>
		</g>
	</g>
	<g id="prel10">
		<polygon fill="#FF9898" points="823.53,536.76 883.34,500.66 953.24,540.62 893.72,576.78 		"/>
		<g>
			
				<text transform="matrix(0.7065 0.4032 -0.8553 0.5181 879.6304 537.64)" fill="#FFFFFF" font-family="'ProximaNova-Regular'" font-size="10.9456px">L10</text>
		</g>
	</g>
</g>
<g id="landmark-zone-pra">
	<g id="pras3">
		<g>
			<polygon fill="#1899B7" points="1199.74,848.81 1199.6,844.51 1234.62,864.6 1235.45,868.9 			"/>
			<polygon fill="#1DA2CC" points="1275.3,840.08 1276.11,844.72 1235.36,868.9 1234.56,864.6 			"/>
			<polygon fill="#29B7E2" points="1199.47,844.51 1240.14,820.33 1274.86,840.29 1234.56,864.6 			"/>
		</g>
		<g>
			
				<text transform="matrix(0.7065 0.4032 -0.8553 0.5181 1228.6354 840.6965)" fill="#FFFFFF" font-family="'ProximaNova-Regular'" font-size="10.9456px">S03</text>
		</g>
	</g>
	<g id="pras6">
		<g>
			<polygon fill="#1691A5" points="1165.3,828.92 1165.15,824.62 1199.73,844.71 1200.49,849.01 			"/>
			<polygon fill="#20AAE1" points="1165.28,824.62 1205.95,800.43 1239.8,820.18 1199.79,844.71 			"/>
		</g>
		<g>
			
				<text transform="matrix(0.7065 0.4032 -0.8553 0.5181 1193.8438 820.8411)" fill="#FFFFFF" font-family="'ProximaNova-Regular'" font-size="10.9456px">S06</text>
		</g>
	</g>
	<g id="pras4">
		<g>
			<polygon fill="#29B7E2" points="1314.75,815.99 1315.56,820.63 1276.12,844.82 1275.33,840.52 			"/>
			<polygon fill="#7ECBFF" points="1240.23,820.43 1280.32,796.24 1314.75,815.99 1275.33,840.52 			"/>
		</g>
		<g>
			
				<text transform="matrix(0.7065 0.4032 -0.8553 0.5181 1268.1968 816.7278)" fill="#FFFFFF" font-family="'ProximaNova-Regular'" font-size="10.9456px">S04</text>
		</g>
	</g>
	<g id="pras5">
		<g>
			<polygon fill="#29B7E2" points="1206.04,800.53 1246.13,776.34 1279.99,796.1 1240.56,820.62 			"/>
		</g>
		<g>
			
				<text transform="matrix(0.7065 0.4032 -0.8553 0.5181 1233.412 796.8763)" fill="#FFFFFF" font-family="'ProximaNova-Regular'" font-size="10.9456px">S05</text>
		</g>
	</g>
	<g id="pra3">
		<g>
			<polygon fill="#7A5CA4" points="1300.67,787.37 1300.67,784.12 1358.14,817.21 1358.65,820.46 			"/>
			<polygon fill="#8567B2" points="1398.26,792.02 1398.77,795.53 1358.9,820.46 1358.39,817.21 			"/>
			<polygon fill="#9898FF" points="1300.92,784.12 1340.59,759.43 1398.26,792.02 1358.39,817.21 			"/>
		</g>
		<g>
			
				<text transform="matrix(0.7065 0.4032 -0.8553 0.5181 1339.179 786.4083)" fill="#FFFFFF" font-family="'ProximaNova-Regular'" font-size="10.9456px">M03</text>
		</g>
	</g>
	<g id="pra4">
		<g>
			<polygon fill="#7A5CA4" points="1242.3,753.85 1242.3,750.6 1300.93,784.27 1301.22,787.63 			"/>
			<polygon fill="#8989F4" points="1242.55,750.6 1282.22,726.49 1340.46,759.66 1301.17,784.27 			"/>
		</g>
		<g>
			
				<text transform="matrix(0.7065 0.4032 -0.8553 0.5181 1280.7457 753.0607)" fill="#FFFFFF" font-family="'ProximaNova-Regular'" font-size="10.9456px">M04</text>
		</g>
	</g>
	<g id="pras2">
		<g>
			<polygon fill="#29B7E2" points="1213.61,877.26 1214.42,881.89 1174.98,906.08 1174.19,901.78 			"/>
			<polygon fill="#7ECBFF" points="1139.09,881.69 1179.18,857.5 1213.61,877.26 1174.19,901.78 			"/>
		</g>
		<g>
			
				<text transform="matrix(0.7065 0.4032 -0.8553 0.5181 1168.0295 877.2712)" fill="#FFFFFF" font-family="'ProximaNova-Regular'" font-size="10.9456px">S02</text>
		</g>
	</g>
	<g id="pras7">
		<g>
			<polygon fill="#29B7E2" points="1104.9,861.79 1144.99,837.61 1178.85,857.36 1139.42,881.88 			"/>
		</g>
		<g>
			
				<text transform="matrix(0.7065 0.4032 -0.8553 0.5181 1133.6498 857.6513)" fill="#FFFFFF" font-family="'ProximaNova-Regular'" font-size="10.9456px">S07</text>
		</g>
	</g>
	<g id="pras1">
		<g>
			<polygon fill="#1899B7" points="1098.6,910.08 1098.45,905.78 1133.48,925.87 1134.31,930.17 			"/>
			<polygon fill="#1DA2CC" points="1174.16,901.34 1174.97,905.98 1134.22,930.17 1133.42,925.87 			"/>
			<polygon fill="#29B7E2" points="1098.33,905.78 1139,881.59 1173.72,901.55 1133.42,925.87 			"/>
		</g>
		<g>
			
				<text transform="matrix(0.7065 0.4032 -0.8553 0.5181 1129.4258 901.7872)" fill="#FFFFFF" font-family="'ProximaNova-Regular'" font-size="10.9456px">S01</text>
		</g>
	</g>
	<g id="pras8">
		<g>
			<polygon fill="#1691A5" points="1064.16,890.18 1064.01,885.88 1098.59,905.97 1099.35,910.27 			"/>
			<polygon fill="#20AAE1" points="1064.14,885.88 1104.8,861.69 1138.66,881.44 1098.65,905.97 			"/>
		</g>
		<g>
			
				<text transform="matrix(0.7065 0.4032 -0.8553 0.5181 1093.8319 881.4739)" fill="#FFFFFF" font-family="'ProximaNova-Regular'" font-size="10.9456px">S08</text>
		</g>
	</g>
	<g id="pra1">
		<g>
			<polygon fill="#7A5CA4" points="1039.44,944.57 1039.44,941.32 1096.91,974.41 1097.42,977.66 			"/>
			<polygon fill="#8567B2" points="1137.03,949.23 1137.54,952.73 1097.66,977.66 1097.15,974.41 			"/>
			<polygon fill="#9898FF" points="1039.69,941.32 1079.36,916.64 1137.03,949.23 1097.15,974.41 			"/>
		</g>
		<g>
			
				<text transform="matrix(0.7065 0.4032 -0.8553 0.5181 1080.001 944.4089)" fill="#FFFFFF" font-family="'ProximaNova-Regular'" font-size="10.9456px">M01</text>
		</g>
	</g>
	<g id="pra2">
		<g>
			<polygon fill="#7A5CA4" points="981.06,911.05 981.06,907.8 1039.69,941.47 1039.99,944.83 			"/>
			<polygon fill="#8989F4" points="981.31,907.8 1020.98,883.69 1079.23,916.86 1039.94,941.47 			"/>
		</g>
		<g>
			
				<text transform="matrix(0.7065 0.4032 -0.8553 0.5181 1020.6076 910.5134)" fill="#FFFFFF" font-family="'ProximaNova-Regular'" font-size="10.9456px">M02</text>
		</g>
	</g>
</g>
<g id="landmark-zone-preb">
	<g id="preb18">
		<g>
			<polygon fill="#29B7E2" points="1101.49,812.53 1102.3,817.16 1062.86,841.35 1062.06,837.05 			"/>
			<polygon fill="#7ECBFF" points="1026.97,816.96 1067.06,792.77 1101.49,812.53 1062.06,837.05 			"/>
		</g>
		<g>
			
				<text transform="matrix(0.7065 0.4032 -0.8553 0.5181 1056.2196 813.4641)" fill="#FFFFFF" font-family="'ProximaNova-Regular'" font-size="10.9456px">S18</text>
		</g>
	</g>
	<g id="preb17">
		<g>
			<polygon fill="#29B7E2" points="992.78,797.06 1032.87,772.88 1066.72,792.63 1027.29,817.15 			"/>
		</g>
		<g>
			
				<text transform="matrix(0.7065 0.4032 -0.8553 0.5181 1021.8169 793.8301)" fill="#FFFFFF" font-family="'ProximaNova-Regular'" font-size="10.9456px">S17</text>
		</g>
	</g>
	<g id="preb16">
		<g>
			<polygon fill="#20AAE1" points="958.01,777.17 998.1,752.98 1032.53,772.73 993.1,797.26 			"/>
		</g>
		<g>
			
				<text transform="matrix(0.7065 0.4032 -0.8553 0.5181 987.3557 774.1638)" fill="#FFFFFF" font-family="'ProximaNova-Regular'" font-size="10.9456px">S16</text>
		</g>
	</g>
	<g id="preb15">
		<g>
			<polygon fill="#0D9FCC" points="923.24,758.42 963.33,734.24 997.76,752.83 958.34,777.36 			"/>
		</g>
		<g>
			
				<text transform="matrix(0.7065 0.4032 -0.8553 0.5181 952.6964 754.3839)" fill="#FFFFFF" font-family="'ProximaNova-Regular'" font-size="10.9456px">S15</text>
		</g>
	</g>
	<g id="preb14">
		<g>
			<polygon fill="#0D9FCC" points="887.99,739.35 928.66,714.01 963.66,733.76 923.08,758.29 			"/>
		</g>
		<g>
			
				<text transform="matrix(0.7065 0.4032 -0.8553 0.5181 918.1626 734.6756)" fill="#FFFFFF" font-family="'ProximaNova-Regular'" font-size="10.9456px">S14</text>
		</g>
	</g>
	<g id="preb9_1_">
		<g>
			<polygon fill="#1899B7" points="986.48,845.35 986.33,841.05 1021.36,861.14 1022.19,865.44 			"/>
			<polygon fill="#1DA2CC" points="1062.04,836.61 1062.85,841.25 1022.1,865.44 1021.3,861.14 			"/>
			<polygon fill="#29B7E2" points="986.2,841.05 1026.87,816.86 1061.6,836.82 1021.3,861.14 			"/>
		</g>
		<g>
			
				<text transform="matrix(0.7065 0.4032 -0.8553 0.5181 1015.5652 836.8075)" fill="#FFFFFF" font-family="'ProximaNova-Regular'" font-size="10.9456px">S09</text>
		</g>
	</g>
	<g id="preb10">
		<g>
			<polygon fill="#1691A5" points="952.03,825.45 951.89,821.15 986.47,841.24 987.23,845.54 			"/>
			<polygon fill="#20AAE1" points="952.01,821.15 992.68,796.96 1026.53,816.71 986.53,841.24 			"/>
		</g>
		<g>
			
				<text transform="matrix(0.7065 0.4032 -0.8553 0.5181 981.8779 817.5823)" fill="#FFFFFF" font-family="'ProximaNova-Regular'" font-size="10.9456px">S10</text>
		</g>
	</g>
	<g id="preb5_1_">
		<g>
			<polygon fill="#7A5CA4" points="903.04,867.7 903.04,864.46 960.51,897.54 961.02,900.79 			"/>
			<polygon fill="#8567B2" points="1000.63,872.36 1001.14,875.86 961.27,900.79 960.76,897.54 			"/>
			<polygon fill="#9898FF" points="903.29,864.46 942.96,839.77 1000.63,872.36 960.76,897.54 			"/>
		</g>
		<g>
			
				<text transform="matrix(0.7065 0.4032 -0.8553 0.5181 940.1455 864.5946)" fill="#FFFFFF" font-family="'ProximaNova-Regular'" font-size="10.9456px">M05</text>
		</g>
	</g>
	<g id="preb6">
		<g>
			<polygon fill="#7A5CA4" points="844.67,834.18 844.67,830.94 903.3,864.6 903.59,867.97 			"/>
			<polygon fill="#8989F4" points="844.92,830.94 884.59,806.83 942.83,839.99 903.54,864.6 			"/>
		</g>
		<g>
			
				<text transform="matrix(0.7065 0.4032 -0.8553 0.5181 881.711 831.2478)" fill="#FFFFFF" font-family="'ProximaNova-Regular'" font-size="10.9456px">M06</text>
		</g>
	</g>
	<g id="preb7">
		<g>
			<polygon fill="#7A5CA4" points="786.87,801.24 786.87,797.99 845.5,831.66 845.8,835.02 			"/>
			<polygon fill="#7E7EE8" points="787.12,797.99 826.79,773.88 885.04,807.05 845.74,831.66 			"/>
		</g>
		<g>
			
				<text transform="matrix(0.7065 0.4032 -0.8553 0.5181 826.7993 799.91)" fill="#FFFFFF" font-family="'ProximaNova-Regular'" font-size="10.9456px">M07</text>
		</g>
	</g>
	<g id="preb8">
		<g>
			<polygon fill="#7A5CA4" points="729.66,768.3 729.66,765.05 788.29,798.71 788.58,802.08 			"/>
			<polygon fill="#7272DB" points="729.91,765.05 769.58,740.94 827.82,774.11 788.53,798.71 			"/>
		</g>
		<g>
			
				<text transform="matrix(0.7065 0.4032 -0.8553 0.5181 768.1167 766.4201)" fill="#FFFFFF" font-family="'ProximaNova-Regular'" font-size="10.9456px">M08</text>
		</g>
	</g>
	<g id="preb9">
		<g>
			<polygon fill="#7A5CA4" points="671.86,735.35 671.86,732.11 730.49,765.77 730.79,769.14 			"/>
			<polygon fill="#6969CC" points="672.11,732.11 711.78,708 770.03,741.17 730.73,765.77 			"/>
		</g>
		<g>
			
				<text transform="matrix(0.7065 0.4032 -0.8553 0.5181 711.6342 734.1859)" fill="#FFFFFF" font-family="'ProximaNova-Regular'" font-size="10.9456px">M09</text>
		</g>
	</g>
	<g id="preb3">
		<polygon fill="#ED8383" points="593.51,593.98 653.31,557.87 723.21,597.83 663.69,634 		"/>
		<g>
			
				<text transform="matrix(0.7065 0.4032 -0.8553 0.5181 648.7594 594.0858)" fill="#FFFFFF" font-family="'ProximaNova-Regular'" font-size="10.9456px">L03</text>
		</g>
	</g>
	<g id="preb1">
		<polygon fill="#FF9898" points="583.68,681.25 643.49,645.14 713.39,685.1 653.87,721.27 		"/>
		<g>
			
				<text transform="matrix(0.7065 0.4032 -0.8553 0.5181 640.25 682.6563)" fill="#FFFFFF" font-family="'ProximaNova-Regular'" font-size="10.9456px">L01</text>
		</g>
	</g>
	<g id="preb5">
		<polygon fill="#FF9898" points="751.87,683.56 811.67,647.46 881.57,687.42 822.05,723.58 		"/>
		<g>
			
				<text transform="matrix(0.7065 0.4032 -0.8553 0.5181 807.0711 684.4327)" fill="#FFFFFF" font-family="'ProximaNova-Regular'" font-size="10.9456px">L05</text>
		</g>
	</g>
	<g id="preb2">
		<polygon fill="#ED8383" points="514.33,641.95 574.13,605.84 644.04,645.8 584.51,681.97 		"/>
		<g>
			
				<text transform="matrix(0.7065 0.4032 -0.8553 0.5181 569.225 642.1226)" fill="#FFFFFF" font-family="'ProximaNova-Regular'" font-size="10.9456px">L02</text>
		</g>
	</g>
	<g id="preb11">
		<g>
			<polygon fill="#138591" points="917.63,805.55 917.48,801.25 952.46,821.34 953.31,825.64 			"/>
			<polygon fill="#0D9FCC" points="917.25,801.25 957.91,777.06 992.35,796.81 952.34,821.34 			"/>
		</g>
		<g>
			
				<text transform="matrix(0.7065 0.4032 -0.8553 0.5181 948.7665 798.6868)" fill="#FFFFFF" font-family="'ProximaNova-Regular'" font-size="10.9456px">S11</text>
		</g>
	</g>
	<g id="preb12">
		<g>
			<polygon fill="#10757A" points="882.6,786.81 882.46,782.51 917.56,801.44 918.35,805.74 			"/>
			<polygon fill="#0998BA" points="882.48,782.51 923.15,758.32 957.58,776.92 917.57,801.44 			"/>
		</g>
		<g>
			
				<text transform="matrix(0.7065 0.4032 -0.8553 0.5181 913.142 778.3561)" fill="#FFFFFF" font-family="'ProximaNova-Regular'" font-size="10.9456px">S12</text>
		</g>
	</g>
	<g id="preb13">
		<g>
			<polygon fill="#10757A" points="847.35,767.74 847.21,763.44 882.31,782.37 883.1,786.67 			"/>
			<polygon fill="#0998BA" points="847.22,763.44 887.89,739.25 922.9,758.42 882.32,782.37 			"/>
		</g>
		<g>
			
				<text transform="matrix(0.7065 0.4032 -0.8553 0.5181 878.6032 758.645)" fill="#FFFFFF" font-family="'ProximaNova-Regular'" font-size="10.9456px">S13</text>
		</g>
	</g>
	<g id="preb4">
		<polygon fill="#FF9898" points="663.44,633.85 723.24,597.75 793.15,637.71 733.62,673.88 		"/>
		<g>
			
				<text transform="matrix(0.7065 0.4032 -0.8553 0.5181 718.8131 634.0643)" fill="#FFFFFF" font-family="'ProximaNova-Regular'" font-size="10.9456px">L04</text>
		</g>
	</g>
</g>
<g id="landmark-premium">
	<g id="landmark_x5F_stage">
		<g>
			<path fill="#5A23A3" d="M559.16,401.47v2.86l118.6,64.12c0,0,3.71,2.17,7.14,0.69c3.43-1.49,67.87-41.74,67.87-41.74v-2.97
				c0,0-57.39,36.83-66.89,41.63c-1.79,0.9-4.19,1.83-8.08-0.11C673.23,463.64,559.16,401.47,559.16,401.47z"/>
			<path fill="#7B38C3" d="M559.68,401.47l69.22-42.2c0,0,3.15-2.25,6.4-0.57c3.77,1.94,118.08,65.72,118.08,65.72l-67.02,41.52
				c0,0-3.43,1.94-7.55,0.11C674.71,464.21,559.68,401.47,559.68,401.47z"/>
		</g>
		
			<text transform="matrix(0.7065 0.4032 -0.8553 0.5181 647.9927 406.7463)" fill="#FFFFFF" font-family="'ProximaNova-Regular'" font-size="10.9456px">Open</text>
		
			<text transform="matrix(0.7065 0.4032 -0.8553 0.5181 636.401 413.3469)" fill="#FFFFFF" font-family="'ProximaNova-Regular'" font-size="10.9456px">Stage</text>
	</g>
	<g id="landmark_x5F_vip">
		<path fill="#964CFF" d="M423.87,482.96l116.62-71.68c0,0,3.15-2.25,6.4-0.57c3.77,1.94,143.51,83.06,143.51,83.06L572.52,563.6
			c0,0-3.43,1.94-7.55,0.11C560.85,561.89,423.87,482.96,423.87,482.96z"/>
		<g>
			<path fill="#7B38C3" d="M423.34,482.96v2.86l140.56,80.3c0,0,3.71,2.17,7.14,0.69c3.43-1.49,118.73-70.06,118.73-70.06v-2.97
				c0,0-108.25,65.15-117.74,69.95c-1.79,0.9-4.19,1.83-8.08-0.11C559.38,561.32,423.34,482.96,423.34,482.96z"/>
			<path fill="#7B38C3" d="M423.92,482.87v-68.48c0,0-0.84-2.54,4.74-6.35c5.59-3.81,111.18-68.48,111.18-68.48s3.12-2.03,3.88,2.03
				c0.76,4.06,0.25,68.36,0.25,68.36L423.92,482.87z"/>
			<path fill="#632EB7" d="M423.92,482.65v-68.27c0,0-0.29-3.11,4.73-6.33c5.68-3.64,110.85-68.27,110.85-68.27s0.86-0.54,1.76-0.5
				c0.01-0.08,0.04-0.17,0-0.18c-2.5-0.77-4.02,0.38-4.02,0.38s-104.52,64.18-109.66,67.41c-5.19,3.27-4.8,6.72-4.8,6.72l0.58,72.22
				l0.78-3.22L423.92,482.65z"/>
		</g>
		
			<text transform="matrix(0.7065 0.4032 -0.8553 0.5181 549.2878 470.9418)" fill="#FFFFFF" font-family="'ProximaNova-Regular'" font-size="10.9456px">VIP</text>
		
			<text transform="matrix(0.7065 0.4032 -0.8553 0.5181 525.2751 470.4545)" fill="#FFFFFF" font-family="'ProximaNova-Regular'" font-size="10.9456px">Auditorium</text>
		
			<text transform="matrix(0.7065 0.4032 -0.8553 0.5181 519.2562 480.2371)" fill="#FFFFFF" font-family="'ProximaNova-Regular'" font-size="10.9456px">Enclose</text>
	</g>
	<g id="landmark_x5F_cafe">
		<g>
			<path fill="#5A23A3" d="M337.23,534.4v2.86l120.33,66.43c0,0,3.71,2.17,7.14,0.69c3.43-1.49,66.14-40.59,66.14-40.59v-2.97
				c0,0-55.66,35.67-65.15,40.47c-1.79,0.9-4.19,1.83-8.08-0.11C453.03,598.88,337.23,534.4,337.23,534.4z"/>
			<path fill="#7B38C3" d="M337.75,534.4l67.49-41.05c0,0,3.15-2.25,6.4-0.57c3.77,1.94,119.81,68.03,119.81,68.03l-65.29,40.36
				c0,0-3.43,1.94-7.55,0.11C454.51,599.45,337.75,534.4,337.75,534.4z"/>
		</g>
		
			<text transform="matrix(0.7065 0.4032 -0.8553 0.5181 418.3344 536.9708)" fill="#FFFFFF" font-family="'ProximaNova-Regular'" font-size="10.9456px">Canteen</text>
		
			<text transform="matrix(0.7065 0.4032 -0.8553 0.5181 413.5804 547.4739)" fill="#FFFFFF" font-family="'ProximaNova-Regular'" font-size="10.9456px">Cafe</text>
	</g>
</g>
<g id="gate_1_">
	<path fill="#964CFF" d="M1287.64,874.92l-62.19,38.62c-1.7,0.98-0.79,1.4-0.66,1.57l3.66,2.09c1.66,0.78,3.03-0.23,3.03-0.23
		s4.51-4.29,11.09-8.02l51.2-30.48c1-0.58,0.57-1.31,0-2.02l-2.68-1.74C1288.98,873.99,1288.7,874.57,1287.64,874.92z"/>
	<polygon fill="#964CFF" points="1292.49,842.88 1293,825 1227.7,865.54 1227.19,883.67 	"/>
	<polygon fill="#964CFF" points="1293.16,825 1292.61,875.83 1290.85,876.81 1291.36,826.04 	"/>
	<polygon fill="#964CFF" points="1229.58,864.3 1229.04,914.55 1227.27,915.53 1227.78,865.34 	"/>
	
		<text transform="matrix(0.9927 -0.6209 0.047 0.9989 1235.4012 873.8522)" fill="#FFFFFF" font-family="'ProximaNova-Regular'" font-size="9.9098px">ENTRANCE</text>
</g>
</svg>
