<?xml version="1.0" encoding="utf-8"?>
<!-- Generator: Adobe Illustrator 21.0.0, SVG Export Plug-In . SVG Version: 6.00 Build 0)  -->
<svg version="1.1" id="Layer_1" xmlns="http://www.w3.org/2000/svg" xmlns:xlink="http://www.w3.org/1999/xlink" x="0px" y="0px"
	 width="1720px" height="1400px" viewBox="0 0 1720 1400" enable-background="new 0 0 1720 1400" xml:space="preserve">
<g id="landmark-premium">
	<g id="bg">
		<g>
			<path fill="#2F1558" d="M1621,1063.63c0,10.53-8.53,19.06-19.06,19.06H134.06c-10.53,0-19.06-8.53-19.06-19.06V327.31
				c0-10.53,8.53-19.06,19.06-19.06h1467.87c10.53,0,19.06,8.53,19.06,19.06V1063.63z"/>
			<g>
				<rect x="228.19" y="411.9" fill="#2F1558" stroke="#EC8FFF" stroke-miterlimit="10" width="1282.8" height="560.78"/>
				<path fill="#964CFF" d="M1516.95,751.47c0,3.51-2.85,6.35-6.35,6.35l0,0c-3.51,0-6.35-2.85-6.35-6.35V651.39
					c0-3.51,2.85-6.35,6.35-6.35l0,0c3.51,0,6.35,2.85,6.35,6.35V751.47z"/>
				<path fill="none" stroke="#FFFFFF" stroke-miterlimit="10" d="M1567.38,1023.52c0,5.26-4.27,9.53-9.53,9.53H180.53
					c-5.26,0-9.53-4.27-9.53-9.53v-655.3c0-5.26,4.27-9.53,9.53-9.53h1377.32c5.26,0,9.53,4.27,9.53,9.53V1023.52z"/>
			</g>
		</g>
	</g>
	<g id="zone">
		<g>
			<rect x="532.8" y="695.87" fill="#243A46" width="746.65" height="264.5"/>
			<rect x="532.8" y="423.42" fill="#481361" width="746.65" height="269.27"/>
			<rect x="1282.63" y="423.42" fill="#002D64" width="212.87" height="536.95"/>
		</g>
	</g>
	
		<text transform="matrix(0.9565 0 0 1 550.3262 456.2949)" fill="#9B60C6" font-family="'ProximaNova-Regular'" font-size="19.0633px">ZONE C</text>
	
		<text transform="matrix(0.9565 0 0 1 1300.1484 456.2949)" fill="#2D71AA" font-family="'ProximaNova-Regular'" font-size="19.0633px">ZONE A</text>
	
		<text transform="matrix(0.9565 0 0 1 550.3262 941.6162)" fill="#628DA0" font-family="'ProximaNova-Regular'" font-size="19.0633px">ZONE B</text>
</g>
<g id="landmark-pre-c">
	<g id="s19">
		<rect x="1210.74" y="624.78" fill="none" stroke="#9CDCFF" stroke-miterlimit="10" width="55.6" height="55.6"/>
		<g>
			
				<text transform="matrix(0.9565 0 0 1 1229.8516 657.252)" fill="#FFFFFF" font-family="'ProximaNova-Regular'" font-size="12.9688px">S19</text>
		</g>
	</g>
	<g id="s20">
		<rect x="1155.14" y="624.78" fill="none" stroke="#9CDCFF" stroke-miterlimit="10" width="55.6" height="55.6"/>
		<g>
			
				<text transform="matrix(0.9565 0 0 1 1172.5762 657.252)" fill="#FFFFFF" font-family="'ProximaNova-Regular'" font-size="12.9688px">S20</text>
		</g>
	</g>
	<g id="s21">
		<rect x="1099.54" y="624.78" fill="none" stroke="#9CDCFF" stroke-miterlimit="10" width="55.6" height="55.6"/>
		<g>
			
				<text transform="matrix(0.9565 0 0 1 1119.4609 657.252)" fill="#FFFFFF" font-family="'ProximaNova-Regular'" font-size="12.9688px">S21</text>
		</g>
	</g>
	<g id="s22">
		<rect x="1043.94" y="624.78" fill="none" stroke="#9CDCFF" stroke-miterlimit="10" width="55.6" height="55.6"/>
		<g>
			
				<text transform="matrix(0.9565 0 0 1 1062.3154 657.252)" fill="#FFFFFF" font-family="'ProximaNova-Regular'" font-size="12.9688px">S22</text>
		</g>
	</g>
	<g id="s23">
		<rect x="989.13" y="624.78" fill="none" stroke="#9CDCFF" stroke-miterlimit="10" width="55.6" height="55.6"/>
		<g>
			
				<text transform="matrix(0.9565 0 0 1 1006.9072 657.252)" fill="#FFFFFF" font-family="'ProximaNova-Regular'" font-size="12.9688px">S23</text>
		</g>
	</g>
	<g id="s28">
		<rect x="1210.74" y="569.17" fill="none" stroke="#9CDCFF" stroke-miterlimit="10" width="55.6" height="55.6"/>
		<g>
			
				<text transform="matrix(0.9565 0 0 1 1228.3691 602.4453)" fill="#FFFFFF" font-family="'ProximaNova-Regular'" font-size="12.9688px">S28</text>
		</g>
	</g>
	<g id="s27">
		<rect x="1155.14" y="569.17" fill="none" stroke="#9CDCFF" stroke-miterlimit="10" width="55.6" height="55.6"/>
		<g>
			
				<text transform="matrix(0.9565 0 0 1 1173.1777 602.4453)" fill="#FFFFFF" font-family="'ProximaNova-Regular'" font-size="12.9688px">S27</text>
		</g>
	</g>
	<g id="m10">
		<rect x="1174.2" y="487.36" fill="none" stroke="#AEAEFF" stroke-miterlimit="10" width="92.14" height="55.6"/>
		<g>
			
				<text transform="matrix(0.9565 0 0 1 1205.3037 519.0469)" fill="#FFFFFF" font-family="'ProximaNova-Regular'" font-size="12.9688px">M10</text>
		</g>
	</g>
	<g id="m11">
		<rect x="1081.27" y="487.36" fill="none" stroke="#AEAEFF" stroke-miterlimit="10" width="92.93" height="55.6"/>
		<g>
			
				<text transform="matrix(0.9565 0 0 1 1113.2715 519.0469)" fill="#FFFFFF" font-family="'ProximaNova-Regular'" font-size="12.9688px">M11</text>
		</g>
	</g>
	<g id="m12">
		<rect x="989.13" y="487.36" fill="none" stroke="#AEAEFF" stroke-miterlimit="10" width="91.34" height="55.6"/>
		<g>
			
				<text transform="matrix(0.9565 0 0 1 1023.168 519.0469)" fill="#FFFFFF" font-family="'ProximaNova-Regular'" font-size="12.9688px">M12</text>
		</g>
	</g>
	<g id="m13">
		<rect x="895.4" y="487.36" fill="none" stroke="#AEAEFF" stroke-miterlimit="10" width="92.93" height="55.6"/>
		<g>
			
				<text transform="matrix(0.9565 0 0 1 929.6357 519.0469)" fill="#FFFFFF" font-family="'ProximaNova-Regular'" font-size="12.9688px">M13</text>
		</g>
	</g>
	<g id="m14">
		<rect x="803.26" y="487.36" fill="none" stroke="#AEAEFF" stroke-miterlimit="10" width="91.34" height="55.6"/>
		<g>
			
				<text transform="matrix(0.9565 0 0 1 839.085 519.0469)" fill="#FFFFFF" font-family="'ProximaNova-Regular'" font-size="12.9688px">M14</text>
		</g>
	</g>
	<g id="l09">
		<rect x="548.29" y="488.16" fill="none" stroke="#FFB3B3" stroke-miterlimit="10" width="112" height="82.61"/>
		<g>
			
				<text transform="matrix(0.9565 0 0 1 594.0117 534.9326)" fill="#FFFFFF" font-family="'ProximaNova-Regular'" font-size="12.9688px">L09</text>
		</g>
	</g>
	<g id="l07">
		<rect x="660.29" y="598.56" fill="none" stroke="#FFB3B3" stroke-miterlimit="10" width="112" height="81.81"/>
		<g>
			
				<text transform="matrix(0.9565 0 0 1 706.8701 644.9375)" fill="#FFFFFF" font-family="'ProximaNova-Regular'" font-size="12.9688px">L07</text>
		</g>
	</g>
	<g id="l06">
		<rect x="801.68" y="597.77" fill="none" stroke="#FFB3B3" stroke-miterlimit="10" width="112" height="82.61"/>
		<g>
			
				<text transform="matrix(0.9565 0 0 1 848.1748 644.9375)" fill="#FFFFFF" font-family="'ProximaNova-Regular'" font-size="12.9688px">L06</text>
		</g>
	</g>
	<g id="l08">
		<rect x="548.29" y="598.56" fill="none" stroke="#FFB3B3" stroke-miterlimit="10" width="112" height="81.81"/>
		<g>
			
				<text transform="matrix(0.9565 0 0 1 594.0742 644.9375)" fill="#FFFFFF" font-family="'ProximaNova-Regular'" font-size="12.9688px">L08</text>
		</g>
	</g>
	<g id="s26">
		<rect x="1099.54" y="569.17" fill="none" stroke="#9CDCFF" stroke-miterlimit="10" width="55.6" height="55.6"/>
		<g>
			
				<text transform="matrix(0.9565 0 0 1 1117.8984 602.4453)" fill="#FFFFFF" font-family="'ProximaNova-Regular'" font-size="12.9688px">S26</text>
		</g>
	</g>
	<g id="s25">
		<rect x="1043.94" y="569.17" fill="none" stroke="#9CDCFF" stroke-miterlimit="10" width="55.6" height="55.6"/>
		<g>
			
				<text transform="matrix(0.9565 0 0 1 1062.3047 602.4453)" fill="#FFFFFF" font-family="'ProximaNova-Regular'" font-size="12.9688px">S25</text>
		</g>
	</g>
	<g id="s24">
		<rect x="989.13" y="569.17" fill="none" stroke="#9CDCFF" stroke-miterlimit="10" width="55.6" height="55.6"/>
		<g>
			
				<text transform="matrix(0.9565 0 0 1 1006.9014 602.4453)" fill="#FFFFFF" font-family="'ProximaNova-Regular'" font-size="12.9688px">S24</text>
		</g>
	</g>
	<g id="l10">
		<rect x="660.29" y="488.16" fill="none" stroke="#FFB3B3" stroke-miterlimit="10" width="112" height="82.61"/>
		<g>
			
				<text transform="matrix(0.9565 0 0 1 707.9629 534.9326)" fill="#FFFFFF" font-family="'ProximaNova-Regular'" font-size="12.9688px">L10</text>
		</g>
	</g>
</g>
<g id="landmark-pre-a">
	<g id="s03">
		<rect x="1391.84" y="624.78" fill="none" stroke="#9CDCFF" stroke-miterlimit="10" width="55.6" height="55.6"/>
		<g>
			
				<text transform="matrix(0.9565 0 0 1 1409.459 657.252)" fill="#FFFFFF" font-family="'ProximaNova-Regular'" font-size="12.9688px">S03</text>
		</g>
	</g>
	<g id="s06">
		<rect x="1336.24" y="624.78" fill="none" stroke="#9CDCFF" stroke-miterlimit="10" width="55.6" height="55.6"/>
		<g>
			
				<text transform="matrix(0.9565 0 0 1 1353.6475 657.252)" fill="#FFFFFF" font-family="'ProximaNova-Regular'" font-size="12.9688px">S06</text>
		</g>
	</g>
	<g id="s04">
		<rect x="1391.84" y="569.17" fill="none" stroke="#9CDCFF" stroke-miterlimit="10" width="55.6" height="55.6"/>
		<g>
			
				<text transform="matrix(0.9565 0 0 1 1409.4531 602.4453)" fill="#FFFFFF" font-family="'ProximaNova-Regular'" font-size="12.9688px">S04</text>
		</g>
	</g>
	<g id="s05">
		<rect x="1336.24" y="569.17" fill="none" stroke="#9CDCFF" stroke-miterlimit="10" width="55.6" height="55.6"/>
		<g>
			
				<text transform="matrix(0.9565 0 0 1 1353.6523 602.4453)" fill="#FFFFFF" font-family="'ProximaNova-Regular'" font-size="12.9688px">S05</text>
		</g>
	</g>
	<g id="m03">
		<rect x="1391.84" y="486.57" fill="none" stroke="#AEAEFF" stroke-miterlimit="10" width="92.93" height="55.6"/>
		<g>
			
				<text transform="matrix(0.9565 0 0 1 1426.7441 519.0469)" fill="#FFFFFF" font-family="'ProximaNova-Regular'" font-size="12.9688px">M03</text>
		</g>
	</g>
	<g id="m04">
		<rect x="1298.12" y="486.57" fill="none" stroke="#AEAEFF" stroke-miterlimit="10" width="93.73" height="55.6"/>
		<g>
			
				<text transform="matrix(0.9565 0 0 1 1333.0117 519.0469)" fill="#FFFFFF" font-family="'ProximaNova-Regular'" font-size="12.9688px">M04</text>
		</g>
	</g>
	<g id="s02">
		<rect x="1391.84" y="709.77" fill="none" stroke="#9CDCFF" stroke-miterlimit="10" width="55.6" height="55.6"/>
		<g>
			
				<text transform="matrix(0.9565 0 0 1 1409.2656 741.0449)" fill="#FFFFFF" font-family="'ProximaNova-Regular'" font-size="12.9688px">S02</text>
		</g>
	</g>
	<g id="s07">
		<rect x="1336.24" y="709.77" fill="none" stroke="#9CDCFF" stroke-miterlimit="10" width="55.6" height="55.6"/>
		<g>
			
				<text transform="matrix(0.9565 0 0 1 1354.1191 741.0449)" fill="#FFFFFF" font-family="'ProximaNova-Regular'" font-size="12.9688px">S07</text>
		</g>
	</g>
	<g id="s01">
		<rect x="1391.84" y="765.37" fill="none" stroke="#9CDCFF" stroke-miterlimit="10" width="55.6" height="55.6"/>
		<g>
			
				<text transform="matrix(0.9565 0 0 1 1410.8096 795.8525)" fill="#FFFFFF" font-family="'ProximaNova-Regular'" font-size="12.9688px">S01</text>
		</g>
	</g>
	<g id="s08">
		<rect x="1336.24" y="765.37" fill="none" stroke="#9CDCFF" stroke-miterlimit="10" width="55.6" height="55.6"/>
		<g>
			
				<text transform="matrix(0.9565 0 0 1 1353.709 795.8525)" fill="#FFFFFF" font-family="'ProximaNova-Regular'" font-size="12.9688px">S08</text>
		</g>
	</g>
	<g id="m01">
		<rect x="1391.84" y="847.98" fill="none" stroke="#AEAEFF" stroke-miterlimit="10" width="92.93" height="55.6"/>
		<g>
			
				<text transform="matrix(0.9565 0 0 1 1428.0967 879.251)" fill="#FFFFFF" font-family="'ProximaNova-Regular'" font-size="12.9688px">M01</text>
		</g>
	</g>
	<g id="m02">
		<rect x="1298.12" y="847.98" fill="none" stroke="#AEAEFF" stroke-miterlimit="10" width="93.73" height="55.6"/>
		<g>
			
				<text transform="matrix(0.9565 0 0 1 1332.8242 879.251)" fill="#FFFFFF" font-family="'ProximaNova-Regular'" font-size="12.9688px">M02</text>
		</g>
	</g>
</g>
<g id="landmark-pre-b">
	<g id="s18">
		<rect x="1210.74" y="709.77" fill="none" stroke="#9CDCFF" stroke-miterlimit="10" width="55.6" height="55.6"/>
		<g>
			
				<text transform="matrix(0.9565 0 0 1 1229.9131 741.0449)" fill="#FFFFFF" font-family="'ProximaNova-Regular'" font-size="12.9688px">S18</text>
		</g>
	</g>
	<g id="s17">
		<rect x="1155.14" y="709.77" fill="none" stroke="#9CDCFF" stroke-miterlimit="10" width="55.6" height="55.6"/>
		<g>
			
				<text transform="matrix(0.9565 0 0 1 1174.7217 741.0449)" fill="#FFFFFF" font-family="'ProximaNova-Regular'" font-size="12.9688px">S17</text>
		</g>
	</g>
	<g id="s16">
		<rect x="1099.54" y="709.77" fill="none" stroke="#9CDCFF" stroke-miterlimit="10" width="55.6" height="55.6"/>
		<g>
			
				<text transform="matrix(0.9565 0 0 1 1119.4434 741.0449)" fill="#FFFFFF" font-family="'ProximaNova-Regular'" font-size="12.9688px">S16</text>
		</g>
	</g>
	<g id="s15">
		<rect x="1043.94" y="709.77" fill="none" stroke="#9CDCFF" stroke-miterlimit="10" width="55.6" height="55.6"/>
		<g>
			
				<text transform="matrix(0.9565 0 0 1 1063.8477 741.0449)" fill="#FFFFFF" font-family="'ProximaNova-Regular'" font-size="12.9688px">S15</text>
		</g>
	</g>
	<g id="s14">
		<rect x="989.13" y="709.77" fill="none" stroke="#9CDCFF" stroke-miterlimit="10" width="55.6" height="55.6"/>
		<g>
			
				<text transform="matrix(0.9565 0 0 1 1008.4453 741.0449)" fill="#FFFFFF" font-family="'ProximaNova-Regular'" font-size="12.9688px">S14</text>
		</g>
	</g>
	<g id="s09">
		<rect x="1210.74" y="765.37" fill="none" stroke="#9CDCFF" stroke-miterlimit="10" width="55.6" height="55.6"/>
		<g>
			
				<text transform="matrix(0.9565 0 0 1 1228.1582 795.8525)" fill="#FFFFFF" font-family="'ProximaNova-Regular'" font-size="12.9688px">S09</text>
		</g>
	</g>
	<g id="s10">
		<rect x="1155.14" y="765.37" fill="none" stroke="#9CDCFF" stroke-miterlimit="10" width="55.6" height="55.6"/>
		<g>
			
				<text transform="matrix(0.9565 0 0 1 1174.1201 795.8525)" fill="#FFFFFF" font-family="'ProximaNova-Regular'" font-size="12.9688px">S10</text>
		</g>
	</g>
	<g id="m05">
		<rect x="1174.2" y="847.18" fill="none" stroke="#AEAEFF" stroke-miterlimit="10" width="92.14" height="55.6"/>
		<g>
			
				<text transform="matrix(0.9565 0 0 1 1203.748 879.251)" fill="#FFFFFF" font-family="'ProximaNova-Regular'" font-size="12.9688px">M05</text>
		</g>
	</g>
	<g id="m06">
		<rect x="1081.27" y="847.18" fill="none" stroke="#AEAEFF" stroke-miterlimit="10" width="92.93" height="55.6"/>
		<g>
			
				<text transform="matrix(0.9565 0 0 1 1110.0146 879.251)" fill="#FFFFFF" font-family="'ProximaNova-Regular'" font-size="12.9688px">M06</text>
		</g>
	</g>
	<g id="m07">
		<rect x="989.13" y="847.18" fill="none" stroke="#AEAEFF" stroke-miterlimit="10" width="91.34" height="55.6"/>
		<g>
			
				<text transform="matrix(0.9565 0 0 1 1021.9297 879.251)" fill="#FFFFFF" font-family="'ProximaNova-Regular'" font-size="12.9688px">M07</text>
		</g>
	</g>
	<g id="m08">
		<rect x="895.4" y="847.18" fill="none" stroke="#AEAEFF" stroke-miterlimit="10" width="92.93" height="55.6"/>
		<g>
			
				<text transform="matrix(0.9565 0 0 1 927.793 879.251)" fill="#FFFFFF" font-family="'ProximaNova-Regular'" font-size="12.9688px">M08</text>
		</g>
	</g>
	<g id="m09">
		<rect x="803.26" y="847.18" fill="none" stroke="#AEAEFF" stroke-miterlimit="10" width="91.34" height="55.6"/>
		<g>
			
				<text transform="matrix(0.9565 0 0 1 837.1855 879.251)" fill="#FFFFFF" font-family="'ProximaNova-Regular'" font-size="12.9688px">M09</text>
		</g>
	</g>
	<g id="l03">
		<rect x="548.29" y="709.77" fill="none" stroke="#FFB3B3" stroke-miterlimit="10" width="112" height="81.81"/>
		<g>
			
				<text transform="matrix(0.9565 0 0 1 594.2217 756.5352)" fill="#FFFFFF" font-family="'ProximaNova-Regular'" font-size="12.9688px">L03</text>
		</g>
	</g>
	<g id="l01">
		<rect x="660.29" y="819.38" fill="none" stroke="#FFB3B3" stroke-miterlimit="10" width="112" height="82.61"/>
		<g>
			
				<text transform="matrix(0.9565 0 0 1 707.9629 866.54)" fill="#FFFFFF" font-family="'ProximaNova-Regular'" font-size="12.9688px">L01</text>
		</g>
	</g>
	<g id="l05">
		<rect x="801.68" y="709.77" fill="none" stroke="#FFB3B3" stroke-miterlimit="10" width="112" height="82.61"/>
		<g>
			
				<text transform="matrix(0.9565 0 0 1 848.1816 756.5352)" fill="#FFFFFF" font-family="'ProximaNova-Regular'" font-size="12.9688px">L05</text>
		</g>
	</g>
	<g id="l02">
		<rect x="548.29" y="819.38" fill="none" stroke="#FFB3B3" stroke-miterlimit="10" width="112" height="82.61"/>
		<g>
			
				<text transform="matrix(0.9565 0 0 1 594.0313 866.54)" fill="#FFFFFF" font-family="'ProximaNova-Regular'" font-size="12.9688px">L02</text>
		</g>
	</g>
	<g id="s11">
		<rect x="1099.54" y="765.37" fill="none" stroke="#9CDCFF" stroke-miterlimit="10" width="55.6" height="55.6"/>
		<g>
			
				<text transform="matrix(0.9565 0 0 1 1121.0068 795.8525)" fill="#FFFFFF" font-family="'ProximaNova-Regular'" font-size="12.9688px">S11</text>
		</g>
	</g>
	<g id="s12">
		<rect x="1043.94" y="765.37" fill="none" stroke="#9CDCFF" stroke-miterlimit="10" width="55.6" height="55.6"/>
		<g>
			
				<text transform="matrix(0.9565 0 0 1 1063.8584 795.8525)" fill="#FFFFFF" font-family="'ProximaNova-Regular'" font-size="12.9688px">S12</text>
		</g>
	</g>
	<g id="s13">
		<rect x="989.13" y="765.37" fill="none" stroke="#9CDCFF" stroke-miterlimit="10" width="55.6" height="55.6"/>
		<g>
			
				<text transform="matrix(0.9565 0 0 1 1008.4512 795.8525)" fill="#FFFFFF" font-family="'ProximaNova-Regular'" font-size="12.9688px">S13</text>
		</g>
	</g>
	<g id="l04">
		<rect x="660.29" y="709.77" fill="none" stroke="#FFB3B3" stroke-miterlimit="10" width="112" height="81.81"/>
		<g>
			
				<text transform="matrix(0.9565 0 0 1 706.6045 756.5352)" fill="#FFFFFF" font-family="'ProximaNova-Regular'" font-size="12.9688px">L04</text>
		</g>
	</g>
</g>
<g id="landmark-pre-stage">
	<rect x="255.99" y="487.36" fill="none" stroke="#EC8FFF" stroke-miterlimit="10" width="195.4" height="101.67"/>
	
		<text transform="matrix(0.9565 0 0 1 338.1553 536.46)" fill="#FFFFFF" font-family="'ProximaNova-Regular'" font-size="12.9688px">Open</text>
	
		<text transform="matrix(0.9565 0 0 1 337.5791 552.0234)" fill="#FFFFFF" font-family="'ProximaNova-Regular'" font-size="12.9688px">Stage</text>
</g>
<g id="landmark-pre-vip">
	<rect x="255.99" y="608.89" fill="none" stroke="#EC8FFF" stroke-miterlimit="10" width="234.32" height="167.6"/>
	
		<text transform="matrix(0.9565 0 0 1 344.1533 678.377)" fill="#FFFFFF" font-family="'ProximaNova-Regular'" font-size="12.9688px">VIP</text>
	
		<text transform="matrix(0.9565 0 0 1 323.6543 693.9414)" fill="#FFFFFF" font-family="'ProximaNova-Regular'" font-size="12.9688px">Auditorium</text>
	
		<text transform="matrix(0.9565 0 0 1 332.0205 709.501)" fill="#FFFFFF" font-family="'ProximaNova-Regular'" font-size="12.9688px">Enclose</text>
</g>
<g id="landmark-pre-canteen">
	<rect x="255.99" y="795.55" fill="none" stroke="#EC8FFF" stroke-miterlimit="10" width="195.4" height="101.67"/>
	
		<text transform="matrix(0.9565 0 0 1 326.0166 844.1201)" fill="#FFFFFF" font-family="'ProximaNova-Regular'" font-size="12.9688px">Canteen</text>
	
		<text transform="matrix(0.9565 0 0 1 336.4111 859.6836)" fill="#FFFFFF" font-family="'ProximaNova-Regular'" font-size="12.9688px">Cafe</text>
</g>
<g>
	
		<text transform="matrix(0.9565 0 0 1 1429.7256 699.5586)" fill="#FFFFFF" font-family="'ProximaNova-Regular'" font-size="12.9688px">ENTRANCE</text>
</g>
</svg>
